<?xml version="1.0" encoding="UTF-8" standalone="no"?>
<!DOCTYPE svg PUBLIC "-//W3C//DTD SVG 1.1//EN" "http://www.w3.org/Graphics/SVG/1.1/DTD/svg11.dtd">
<svg width="100%" height="100%" viewBox="0 0 1955 1147" version="1.1" xmlns="http://www.w3.org/2000/svg" xmlns:xlink="http://www.w3.org/1999/xlink" xml:space="preserve" xmlns:serif="http://www.serif.com/" style="fill-rule:evenodd;clip-rule:evenodd;stroke-linecap:round;">
    <rect x="0" y="0" width="1954.83" height="1146.24" style="fill:white;"/>
    <g>
        <g transform="matrix(1,0,0,1,888.268,202.805)">
            <path d="M1.34,-1.02C1.16,-1.66 1.04,-3.2 0.92,-3.18M-0.88,3.66C-1.52,3.4 -0.74,1.24 -0.72,-0.08" style="fill:none;fill-rule:nonzero;stroke:black;stroke-width:2px;"/>
        </g>
        <g transform="matrix(1,0,0,1,888.268,202.805)">
            <path d="M-0.42,1.54C-0.5,0.92 -0.48,0.38 -0.72,-0.16M-0.4,1.52C-0.52,1.14 -0.48,0.72 -0.76,-0.04" style="fill:none;fill-rule:nonzero;stroke:black;stroke-width:2px;"/>
        </g>
        <g transform="matrix(1,0,0,1,888.268,202.805)">
            <path d="M-1.54,1.42C-1.18,0.84 -0.74,0.34 -0.72,-0.16M-1.5,1.38C-1.38,1.04 -1.06,0.66 -0.76,-0.04" style="fill:none;fill-rule:nonzero;stroke:black;stroke-width:2px;"/>
        </g>
    </g>
    <g transform="matrix(1,0,0,1,983.919,816.383)">
        <g>
            <path d="M-0.68,-0.24L3.46,182.24L0.72,193.68L38.62,197.64L89.7,200.64L144.28,200.56L155.38,196.7L172.02,185.92L171.84,0.94L166.66,2.44L168.14,-5.64L146.28,-13.06L79.24,-20.6L25.02,-10.48L10.26,-8.3L-0.88,0.72" style="fill:rgb(34,139,230);"/>
            <path d="M0.2,-1.88C-0.38,26.16 -1.86,136.28 -1.8,167.38C-1.74,198.48 -1.54,180.5 0.56,184.7C2.68,188.9 4.1,190.16 10.86,192.62C17.64,195.06 27.56,197.74 41.18,199.4C54.8,201.06 75.88,202.62 92.64,202.58C109.4,202.56 129.46,201.48 141.68,199.24C153.92,197 161.48,191.9 165.98,189.14C170.46,186.36 167.74,185.9 168.62,182.62C169.52,179.32 171.18,197.88 171.34,169.38C171.5,140.88 170.2,39.64 169.56,11.66C168.92,-16.32 169.72,5 167.5,1.48C165.28,-2.06 161.4,-7.22 156.26,-9.5C151.12,-11.8 148.92,-10.56 136.64,-12.3C124.34,-14.04 98.92,-19.2 82.5,-19.96C66.1,-20.74 50.98,-18.94 38.22,-16.94C25.46,-14.94 12.12,-10.92 5.92,-7.92C-0.28,-4.92 2.1,-0.14 1,1.02C-0.1,2.2 -0.18,-0.94 -0.62,-0.88M-2.62,2.36C-2.66,29.72 2.06,132.7 2.38,163.44C2.7,194.16 -2.36,181.66 -0.68,186.76C1,191.86 5.8,191.98 12.44,194.1C19.08,196.2 26.42,198.36 39.18,199.38C51.94,200.4 71.56,200.74 88.98,200.24C106.38,199.72 131.2,197.26 143.62,196.32C156.06,195.38 158.88,196.26 163.56,194.58C168.22,192.9 170.08,190.54 171.68,186.22C173.26,181.88 173.44,197.56 173.1,168.6C172.78,139.64 170.06,40.22 169.7,12.42C169.34,-15.4 173.26,5.74 170.9,1.74C168.54,-2.24 161.34,-9.2 155.5,-11.5C149.64,-13.78 147.92,-11.42 135.84,-12C123.76,-12.6 99.14,-14.44 83.02,-15C66.9,-15.56 51.24,-16.7 39.08,-15.34C26.9,-13.98 16.68,-9.78 10,-6.84C3.32,-3.88 0.06,1.36 -1,2.36C-2.06,3.36 3.7,-0.2 3.58,-0.82" style="fill:none;stroke:rgb(10,17,211);stroke-width:2px;"/>
        </g>
    </g>
    <g transform="matrix(1,0,0,1,985.251,942.937)">
        <g>
            <path d="M-1.88,-2.36C-0.88,-1.04 0.96,5.04 5.08,8.1C9.2,11.16 15.64,14.08 22.86,15.98C30.1,17.9 37.46,18.94 48.46,19.56C59.44,20.18 74.06,20.14 88.84,19.7C103.62,19.26 124.5,19.18 137.18,16.92C149.86,14.64 159.62,9.32 164.9,6.06C170.2,2.8 168.16,-1.54 168.9,-2.64M1.54,1.62C2.34,2.16 0.28,2.36 3.5,4.14C6.7,5.94 13.3,10.5 20.76,12.38C28.22,14.26 36.28,13.92 48.22,15.4C60.16,16.88 77.16,21.28 92.42,21.3C107.66,21.32 127.46,17.32 139.72,15.48C151.98,13.66 160.44,13.6 165.98,10.32C171.52,7.02 171.92,-2.02 173,-4.24" style="fill:none;fill-rule:nonzero;stroke:rgb(10,17,211);stroke-width:2px;"/>
        </g>
    </g>
    <g transform="matrix(1,0,0,1,983.131,878.828)">
        <g>
            <path d="M-2.36,0.58C-1.56,1.96 0.32,4.48 5.04,6.48C9.78,8.48 18.26,10.92 26.02,12.54C33.78,14.16 40.64,15.38 51.64,16.24C62.62,17.08 77.4,17.76 91.96,17.6C106.5,17.44 126.82,17.44 138.94,15.26C151.04,13.08 159.54,7.48 164.62,4.5C169.7,1.5 168.24,-1.84 169.42,-2.68M0.8,-1.22C1.32,0.66 -0.7,6.38 3.44,8.98C7.56,11.6 17.3,13 25.56,14.44C33.84,15.88 42.36,17.02 53.08,17.64C63.78,18.24 76.16,18.9 89.84,18.12C103.5,17.34 122.48,14.66 135.1,12.96C147.7,11.26 159.08,10.82 165.54,7.94C171.98,5.06 173.26,-2.46 173.76,-4.32" style="fill:none;fill-rule:nonzero;stroke:rgb(10,17,211);stroke-width:2px;"/>
        </g>
    </g>
    <g transform="matrix(1,0,0,1,980.959,800.828)">
        <path d="M80.5,-1.5C98.3,-1.62 124.26,1.74 139.1,4.18C153.96,6.6 166.2,9.52 169.58,13.1C172.96,16.68 168.38,22.52 159.38,25.66C150.36,28.78 132.22,30.58 115.54,31.9C98.88,33.2 76.4,34.64 59.38,33.52C42.36,32.38 23.1,28.4 13.42,25.08C3.74,21.78 -1.5,17.06 1.28,13.66C4.08,10.24 13.04,7.04 30.14,4.64C47.24,2.26 87.92,-0.64 103.94,-0.66C119.94,-0.7 126.2,4.04 126.26,4.46M111.82,-0.02C128.4,1.08 148.62,5.16 157.94,8.54C167.26,11.94 170.1,17.18 167.72,20.32C165.34,23.46 156.86,24.96 143.64,27.4C130.42,29.84 106.66,34.82 88.38,35C70.12,35.18 48.86,30.48 34,28.48C19.12,26.48 2.74,26.16 -0.82,22.96C-4.38,19.78 3.88,13.04 12.6,9.32C21.32,5.6 34.44,2.12 51.48,0.68C68.54,-0.76 104.36,0.54 114.88,0.64C125.4,0.74 115.24,1.08 114.62,1.28" style="fill:white;fill-rule:nonzero;"/>
        <path d="M67.3,-0.84C83.82,-1.72 108.64,-0.38 124.78,1.44C140.94,3.26 157.36,6.96 164.16,10.12C170.96,13.26 171.34,16.98 165.6,20.32C159.88,23.64 144.88,27.72 129.78,30.08C114.68,32.42 92.96,34.94 75,34.44C57.04,33.92 34.84,29.38 22.06,26.96C9.3,24.54 -0.46,23.32 -1.62,19.86C-2.76,16.42 1.24,9.44 15.14,6.3C29.02,3.18 68.38,2.4 81.76,1.1C95.14,-0.2 95.88,-1.36 95.46,-1.48M62,-0.06C78.24,-1.86 100.74,-2.22 117.5,-0.7C134.28,0.8 154.32,4.84 162.64,8.96C170.96,13.1 172.3,20.64 167.42,24.08C162.56,27.54 147.6,28.02 133.4,29.64C119.22,31.26 100.48,33.92 82.28,33.76C64.08,33.6 38.1,30.6 24.16,28.66C10.24,26.7 0.32,25.66 -1.28,22.04C-2.86,18.42 4.24,10.28 14.66,6.96C25.1,3.64 53.88,2.96 61.3,2.12C68.74,1.28 58.54,2.24 59.26,1.92" style="fill:none;fill-rule:nonzero;stroke:rgb(10,17,211);stroke-width:2px;"/>
    </g>
    <g transform="matrix(1,0,0,1,1119.57,848.464)">
        <path d="M5.88,2.8C8.34,2.06 13.66,1.54 16.38,2C19.1,2.44 20.72,3.52 22.2,5.5C23.66,7.5 25.58,10.86 25.18,13.96C24.8,17.08 21.84,21.9 19.86,24.18C17.9,26.46 15.98,27.54 13.34,27.66C10.68,27.78 6.32,26.38 3.98,24.86C1.64,23.36 -0.3,21.76 -0.7,18.6C-1.12,15.44 0.06,8.98 1.52,5.9C3,2.82 6.18,0.96 8.14,0.14C10.1,-0.68 13.06,0.54 13.24,1.02M13.76,0.52C16.46,0.74 20.36,1.08 22.3,3.74C24.24,6.38 25.92,13.02 25.4,16.4C24.88,19.78 20.92,21.88 19.2,24C17.5,26.14 17.68,29.38 15.16,29.16C12.64,28.96 6.06,24.26 4.06,22.74C2.06,21.22 3.66,22.88 3.18,20.1C2.7,17.3 0.78,8.62 1.22,5.98C1.66,3.34 3.62,4.74 5.82,4.24C8.04,3.74 12.94,3.38 14.42,3C15.9,2.62 14.8,1.9 14.7,1.98" style="fill:white;fill-rule:nonzero;"/>
        <path d="M16.34,2.54C18.84,3.44 21.96,6.46 23.26,8.76C24.56,11.04 25.06,13.94 24.16,16.32C23.24,18.72 20.14,21.22 17.78,23.06C15.42,24.9 12.26,27.46 9.94,27.34C7.62,27.22 5.88,24.74 3.9,22.36C1.94,19.96 -1.9,16.14 -1.88,13.06C-1.88,9.98 2.24,5.82 3.98,3.9C5.72,1.96 5.96,1.84 8.6,1.46C11.24,1.08 18.3,1.7 19.8,1.6C21.3,1.5 18.14,0.8 17.62,0.84M9.66,-0.92C11.54,-1.46 14.36,2.02 16.7,3.66C19.04,5.28 21.98,6.8 23.7,8.86C25.42,10.92 28.12,12.9 27.04,16.02C25.96,19.14 20.14,26.18 17.22,27.56C14.32,28.94 12.14,25.54 9.58,24.3C7,23.08 2.9,21.94 1.8,20.22C0.68,18.52 2.8,16.5 2.88,14.04C2.94,11.56 0.74,8.04 2.22,5.42C3.72,2.8 10.32,-1.24 11.84,-1.64C13.36,-2.04 11.9,2.12 11.34,3.04" style="fill:none;fill-rule:nonzero;stroke:rgb(10,17,211);stroke-width:2px;"/>
    </g>
    <g transform="matrix(1,0,0,1,1119.57,907.782)">
        <path d="M11.66,0.76C14.66,0.2 17.92,-0.28 19.92,1.1C21.92,2.46 23.06,6.4 23.62,8.98C24.18,11.58 23.9,13.94 23.28,16.64C22.66,19.32 21.86,23.56 19.86,25.08C17.84,26.6 13.94,26.34 11.22,25.72C8.48,25.1 5.08,23.28 3.5,21.34C1.94,19.4 2.22,16.98 1.82,14.06C1.4,11.16 -0.38,5.88 1.04,3.86C2.48,1.86 8.54,2.66 10.36,2C12.2,1.36 11.72,-0.06 12.02,-0.04M11.04,0.38C13.44,0.08 15.24,1.52 17.92,2.58C20.58,3.62 25.78,3.88 27.08,6.66C28.38,9.44 26.8,16.48 25.7,19.26C24.62,22.04 23.64,21.72 20.58,23.38C17.54,25.04 10.06,29.38 7.4,29.18C4.74,28.98 6.38,25 4.68,22.22C2.98,19.46 -2.96,15.54 -2.8,12.52C-2.62,9.5 2.98,6.22 5.72,4.16C8.44,2.1 12.44,0.9 13.54,0.16C14.62,-0.58 12.4,-1 12.28,-0.3" style="fill:white;fill-rule:nonzero;"/>
        <path d="M10.22,0.12C12.52,-0.66 16.32,-0.14 18.44,0.78C20.58,1.68 22.22,3.2 23,5.6C23.78,7.98 23.56,11.98 23.1,15.14C22.64,18.3 22.26,22.92 20.22,24.56C18.2,26.22 13.92,24.98 10.92,25.06C7.9,25.14 4.28,26.86 2.16,25.1C0.02,23.34 -2.02,17.5 -1.86,14.5C-1.72,11.52 0.9,9.88 3.04,7.14C5.16,4.4 9.52,-0.52 10.94,-1.9C12.36,-3.28 11.66,-1.56 11.52,-1.12M14.16,-1.76C16.72,-1.26 22.4,1.72 24.16,4.88C25.92,8.04 25.52,14.42 24.7,17.18C23.9,19.92 20.7,19.88 19.28,21.42C17.88,22.94 18.92,25.96 16.24,26.36C13.56,26.76 6.1,24.82 3.18,23.82C0.26,22.82 -1.06,23.06 -1.3,20.32C-1.56,17.6 0.2,10.36 1.68,7.44C3.14,4.54 5.56,3.92 7.52,2.88C9.48,1.84 11.72,1.96 13.44,1.22C15.14,0.48 17.16,-1.98 17.8,-1.58" style="fill:none;fill-rule:nonzero;stroke:rgb(10,17,211);stroke-width:2px;"/>
    </g>
    <g transform="matrix(1,0,0,1,1119.57,972.253)">
        <path d="M7.6,2.78C9.98,1.1 12.46,-0.34 15.02,0C17.58,0.32 21.52,2.14 22.96,4.72C24.4,7.32 23.9,12.4 23.62,15.54C23.36,18.7 23.18,21.7 21.32,23.66C19.46,25.64 15.32,26.92 12.48,27.38C9.64,27.84 6.26,28.44 4.3,26.44C2.34,24.46 1.44,18.54 0.72,15.4C0,12.26 -1.58,9.9 -0.06,7.6C1.46,5.3 8.38,2.52 9.8,1.62C11.22,0.72 8.6,2.18 8.48,2.18M11.52,-1.1C14.28,-1.12 18.3,3.04 20.02,5.18C21.72,7.3 21,8.94 21.74,11.64C22.46,14.36 25.42,19.52 24.42,21.46C23.42,23.4 17.82,22.1 15.72,23.3C13.6,24.5 13.94,29.44 11.78,28.64C9.62,27.86 4.78,20.82 2.74,18.54C0.7,16.26 -0.54,16.88 -0.44,14.92C-0.34,12.96 1.34,9.04 3.3,6.8C5.26,4.58 10.1,2.32 11.32,1.56C12.52,0.8 10.1,2.2 10.6,2.24" style="fill:white;fill-rule:nonzero;"/>
        <path d="M16.58,1.98C19.14,2.5 22,4.34 23.04,6.46C24.08,8.6 23.5,11.74 22.76,14.74C22.04,17.72 20.44,22.52 18.7,24.44C16.96,26.36 15.06,26.66 12.34,26.24C9.6,25.82 4,24.02 2.26,21.9C0.54,19.8 2.08,15.98 1.92,13.58C1.76,11.16 0.02,9.62 1.28,7.44C2.56,5.24 7.1,1.78 9.58,0.48C12.04,-0.84 14.8,-0.58 16.14,-0.46C17.48,-0.32 17.48,0.54 17.6,1.2M13.24,2.14C15.78,2.76 19.52,3.64 21.94,5.28C24.38,6.94 28.12,8.76 27.82,12.06C27.52,15.36 22.58,23.02 20.16,25.08C17.74,27.14 15.9,24.82 13.3,24.46C10.7,24.1 6.22,24 4.56,22.94C2.9,21.86 4.1,20.4 3.38,18.04C2.66,15.7 -0.58,11.92 0.24,8.84C1.06,5.78 5.64,0.58 8.3,-0.4C10.96,-1.38 15.42,2.42 16.22,2.96C17.02,3.52 12.96,3.2 13.1,2.96" style="fill:none;fill-rule:nonzero;stroke:rgb(10,17,211);stroke-width:2px;"/>
    </g>
    <g transform="matrix(1,0,0,1,970.737,1062.87)">
        <text x="0px" y="0px" style="font-family:'LucidaGrande', 'Lucida Grande', sans-serif;font-weight:500;font-size:50.694px;">MongoDB</text>
    </g>
    <g>
        <g transform="matrix(1,0,0,1,458.995,201.268)">
            <path d="M1.5,0.02C64.86,0.3 317.22,2.6 380.4,2.86M-0.64,-2.06C62.38,-1.46 315.2,5.08 378.5,6.02" style="fill:none;fill-rule:nonzero;stroke:black;stroke-width:2px;"/>
        </g>
        <g transform="matrix(1,0,0,1,458.995,201.268)">
            <path d="M321.72,25.32C339.48,19.26 354.86,16.5 382,9.52M321.66,25.28C340.44,18 355.76,13.48 379.78,5.5" style="fill:none;fill-rule:nonzero;stroke:black;stroke-width:2px;"/>
        </g>
        <g transform="matrix(1,0,0,1,458.995,201.268)">
            <path d="M322.58,-15.7C340.28,-9.04 355.38,0.9 382,9.52M322.5,-15.74C340.7,-10.18 355.76,-1.84 379.78,5.5" style="fill:none;fill-rule:nonzero;stroke:black;stroke-width:2px;"/>
        </g>
    </g>
    <g>
        <g transform="matrix(1,0,0,1,1276.87,224.736)">
            <path d="M-1.28,-2.38C72.9,-1.32 368.72,5.02 442.98,5.9M2.46,1.6C77.52,1.98 373.98,1.72 447.28,2.2" style="fill:none;fill-rule:nonzero;stroke:black;stroke-width:2px;"/>
        </g>
        <g transform="matrix(-0.999994,-0.00353108,0.00353108,-0.999994,1722.87,275.224)">
            <path d="M-1.28,-2.38C72.9,-1.32 368.72,5.02 442.98,5.9M2.46,1.6C77.52,1.98 373.98,1.72 447.28,2.2" style="fill:none;fill-rule:nonzero;stroke:black;stroke-width:2px;"/>
        </g>
        <g transform="matrix(1,0,0,1,1276.87,224.736)">
            <path d="M386.88,18.98C404.62,17.04 411.58,17.54 447.28,5.92M391.46,20.76C403.68,16.72 414.16,14.1 446.96,1.14" style="fill:none;fill-rule:nonzero;stroke:black;stroke-width:2px;"/>
        </g>
        <g transform="matrix(-0.999994,-0.00353108,0.00353108,-0.999994,1722.87,275.224)">
            <path d="M386.88,18.98C404.62,17.04 411.58,17.54 447.28,5.92M391.46,20.76C403.68,16.72 414.16,14.1 446.96,1.14" style="fill:none;fill-rule:nonzero;stroke:black;stroke-width:2px;"/>
        </g>
        <g transform="matrix(1,0,0,1,1276.87,224.736)">
            <path d="M386.98,-22.06C404.62,-15.26 411.56,-6.04 447.28,5.92M391.54,-20.28C404.08,-15.46 414.54,-9.2 446.96,1.14" style="fill:none;fill-rule:nonzero;stroke:black;stroke-width:2px;"/>
        </g>
        <g transform="matrix(-0.999994,-0.00353108,0.00353108,-0.999994,1722.87,275.224)">
            <path d="M386.98,-22.06C404.62,-15.26 411.56,-6.04 447.28,5.92M391.54,-20.28C404.08,-15.46 414.54,-9.2 446.96,1.14" style="fill:none;fill-rule:nonzero;stroke:black;stroke-width:2px;"/>
        </g>
    </g>
    <g>
        <g transform="matrix(1,0,0,1,1009.85,470.104)">
            <path d="M1.08,1.5C1.14,53.46 0.4,260 0.4,311.76M-1.26,0.18C-1.62,52.4 -2.18,261.56 -2.08,313.82" style="fill:none;fill-rule:nonzero;stroke:black;stroke-width:2px;"/>
        </g>
        <g transform="matrix(1,0,0,1,1009.85,470.104)">
            <path d="M-20.08,255.56C-19.6,273.58 -13.04,287.4 -4.44,313.06M-22.18,257.82C-18.98,271.82 -13.98,284.32 -1.16,312.46" style="fill:none;fill-rule:nonzero;stroke:black;stroke-width:2px;"/>
        </g>
        <g transform="matrix(1,0,0,1,1009.85,470.104)">
            <path d="M20.96,255.6C9.06,273.8 3.24,287.6 -4.44,313.06M18.86,257.86C12.86,271.8 8.66,284.3 -1.16,312.46" style="fill:none;fill-rule:nonzero;stroke:black;stroke-width:2px;"/>
        </g>
    </g>
    <g>
        <g transform="matrix(1,0,0,1,1127.03,792.541)">
            <path d="M1.7,1.88C2,-52.08 2.5,-268.08 3.06,-322.52M-0.32,0.78C0.62,-54 6.92,-272.14 7.58,-326.06" style="fill:none;fill-rule:nonzero;stroke:black;stroke-width:2px;"/>
        </g>
        <g transform="matrix(1,0,0,1,1127.03,792.541)">
            <path d="M30.02,-272.08C22.06,-288.64 11.4,-311.28 3.82,-325M24.92,-269.18C23.24,-280.4 16,-297.18 9.36,-328.04" style="fill:none;fill-rule:nonzero;stroke:black;stroke-width:2px;"/>
        </g>
        <g transform="matrix(1,0,0,1,1127.03,792.541)">
            <path d="M-11.02,-272.96C-4.54,-289.5 -0.74,-311.84 3.82,-325M-16.12,-270.06C-8.36,-280.92 -6.2,-297.52 9.36,-328.04" style="fill:none;fill-rule:nonzero;stroke:black;stroke-width:2px;"/>
        </g>
    </g>
    <g>
        <g transform="matrix(1,0,0,1,831.338,294.361)">
            <path d="M0.76,0.16C-60.84,-0.08 -307.6,-0.18 -369.24,-0.44M-1.76,-1.84C-63.64,-2.94 -309.46,-4.96 -370.88,-4.48" style="fill:none;fill-rule:nonzero;stroke:black;stroke-width:2px;"/>
        </g>
        <g transform="matrix(1,0,0,1,831.338,294.361)">
            <path d="M-314.2,-24.1C-331.28,-17.36 -350.36,-14.58 -373.02,-8.06M-315,-23.44C-337.88,-15.86 -359.24,-9.38 -371.26,-3.88" style="fill:none;fill-rule:nonzero;stroke:black;stroke-width:2px;"/>
        </g>
        <g transform="matrix(1,0,0,1,831.338,294.361)">
            <path d="M-314.26,16.96C-331.5,10.92 -350.54,0.92 -373.02,-8.06M-315.06,17.6C-337.92,8.98 -359.26,-0.74 -371.26,-3.88" style="fill:none;fill-rule:nonzero;stroke:black;stroke-width:2px;"/>
        </g>
    </g>
    <g transform="matrix(1,0,0,1,25.0075,121.135)">
        <path d="M1.44,0.44C148.3,1.2 295.62,1.16 425.28,3.08M-0.9,0.42C156.34,1.86 309.74,0.22 427.08,-1.44M428.36,-3.06C427.18,60.48 423.86,124.02 428.98,251.86M427.34,-0.76C425.92,53 427.88,107.04 429.06,254.86M428.6,254.94C304.66,258.8 183.5,256.76 2.66,257.02M428.42,256C279.84,255.06 131.66,254.86 -0.06,256.2M-1.1,257.18C-0.38,183.74 -2.52,103.06 3.84,3.58M1.02,256.78C1.9,180.88 0.94,108.48 1.04,-1.98" style="fill:none;fill-rule:nonzero;stroke:black;stroke-width:2px;"/>
    </g>
    <g transform="matrix(1,0,0,1,21.4132,156.946)">
        <g>
            <path d="M0.98,0.3C73.02,0.44 359.56,1.32 431.3,1.52M-1.42,-1.62C70.44,-2.22 357.86,-1.8 429.8,-1.92" style="fill:none;fill-rule:nonzero;stroke:black;stroke-width:2px;"/>
        </g>
    </g>
    <g transform="matrix(1,0,0,1,40.005,135.409)">
        <path d="M16.72,8.36C16.72,8.84 16.68,9.34 16.58,9.8C16.5,10.28 16.38,10.76 16.22,11.22C16.04,11.68 15.84,12.12 15.6,12.54C15.36,12.96 15.08,13.36 14.76,13.72C14.44,14.1 14.1,14.44 13.72,14.76C13.36,15.08 12.96,15.36 12.54,15.6C12.12,15.84 11.68,16.04 11.22,16.22C10.76,16.38 10.28,16.5 9.8,16.58C9.34,16.68 8.84,16.72 8.36,16.72C7.88,16.72 7.38,16.68 6.9,16.58C6.42,16.5 5.96,16.38 5.5,16.22C5.04,16.04 4.6,15.84 4.18,15.6C3.76,15.36 3.36,15.08 2.98,14.76C2.62,14.44 2.26,14.1 1.96,13.72C1.64,13.36 1.36,12.96 1.12,12.54C0.88,12.12 0.66,11.68 0.5,11.22C0.34,10.76 0.22,10.28 0.12,9.8C0.04,9.34 0,8.84 0,8.36C0,7.88 0.04,7.38 0.12,6.9C0.22,6.42 0.34,5.96 0.5,5.5C0.66,5.04 0.88,4.6 1.12,4.18C1.36,3.76 1.64,3.36 1.96,2.98C2.26,2.62 2.62,2.26 2.98,1.96C3.36,1.64 3.76,1.36 4.18,1.12C4.6,0.88 5.04,0.66 5.5,0.5C5.96,0.34 6.42,0.22 6.9,0.12C7.38,0.04 7.88,0 8.36,0C8.84,0 9.34,0.04 9.8,0.12C10.28,0.22 10.76,0.34 11.22,0.5C11.68,0.66 12.12,0.88 12.54,1.12C12.96,1.36 13.36,1.64 13.72,1.96C14.1,2.26 14.44,2.62 14.76,2.98C15.08,3.36 15.36,3.76 15.6,4.18C15.84,4.6 16.04,5.04 16.22,5.5C16.38,5.96 16.5,6.42 16.58,6.9C16.68,7.38 16.7,8.12 16.72,8.36C16.74,8.6 16.74,8.12 16.72,8.36" style="fill:rgb(250,82,82);fill-rule:nonzero;"/>
        <path d="M16.72,8.36C16.72,8.84 16.68,9.34 16.58,9.8C16.5,10.28 16.38,10.76 16.22,11.22C16.04,11.68 15.84,12.12 15.6,12.54C15.36,12.96 15.08,13.36 14.76,13.72C14.44,14.1 14.1,14.44 13.72,14.76C13.36,15.08 12.96,15.36 12.54,15.6C12.12,15.84 11.68,16.04 11.22,16.22C10.76,16.38 10.28,16.5 9.8,16.58C9.34,16.68 8.84,16.72 8.36,16.72C7.88,16.72 7.38,16.68 6.9,16.58C6.42,16.5 5.96,16.38 5.5,16.22C5.04,16.04 4.6,15.84 4.18,15.6C3.76,15.36 3.36,15.08 2.98,14.76C2.62,14.44 2.26,14.1 1.96,13.72C1.64,13.36 1.36,12.96 1.12,12.54C0.88,12.12 0.66,11.68 0.5,11.22C0.34,10.76 0.22,10.28 0.12,9.8C0.04,9.34 0,8.84 0,8.36C0,7.88 0.04,7.38 0.12,6.9C0.22,6.42 0.34,5.96 0.5,5.5C0.66,5.04 0.88,4.6 1.12,4.18C1.36,3.76 1.64,3.36 1.96,2.98C2.26,2.62 2.62,2.26 2.98,1.96C3.36,1.64 3.76,1.36 4.18,1.12C4.6,0.88 5.04,0.66 5.5,0.5C5.96,0.34 6.42,0.22 6.9,0.12C7.38,0.04 7.88,0 8.36,0C8.84,0 9.34,0.04 9.8,0.12C10.28,0.22 10.76,0.34 11.22,0.5C11.68,0.66 12.12,0.88 12.54,1.12C12.96,1.36 13.36,1.64 13.72,1.96C14.1,2.26 14.44,2.62 14.76,2.98C15.08,3.36 15.36,3.76 15.6,4.18C15.84,4.6 16.04,5.04 16.22,5.5C16.38,5.96 16.5,6.42 16.58,6.9C16.68,7.38 16.7,8.12 16.72,8.36C16.74,8.6 16.74,8.12 16.72,8.36" style="fill:none;fill-rule:nonzero;stroke:black;stroke-width:2px;"/>
    </g>
    <g transform="matrix(1,0,0,1,74.2996,135.409)">
        <path d="M16.72,8.36C16.72,8.84 16.68,9.34 16.58,9.8C16.5,10.28 16.38,10.76 16.22,11.22C16.04,11.68 15.84,12.12 15.6,12.54C15.36,12.96 15.08,13.36 14.76,13.72C14.44,14.1 14.1,14.44 13.72,14.76C13.36,15.08 12.96,15.36 12.54,15.6C12.12,15.84 11.68,16.04 11.22,16.22C10.76,16.38 10.28,16.5 9.8,16.58C9.34,16.68 8.84,16.72 8.36,16.72C7.88,16.72 7.38,16.68 6.9,16.58C6.42,16.5 5.96,16.38 5.5,16.22C5.04,16.04 4.6,15.84 4.18,15.6C3.76,15.36 3.36,15.08 2.98,14.76C2.62,14.44 2.26,14.1 1.96,13.72C1.64,13.36 1.36,12.96 1.12,12.54C0.88,12.12 0.66,11.68 0.5,11.22C0.34,10.76 0.22,10.28 0.12,9.8C0.04,9.34 0,8.84 0,8.36C0,7.88 0.04,7.38 0.12,6.9C0.22,6.42 0.34,5.96 0.5,5.5C0.66,5.04 0.88,4.6 1.12,4.18C1.36,3.76 1.64,3.36 1.96,2.98C2.26,2.62 2.62,2.26 2.98,1.96C3.36,1.64 3.76,1.36 4.18,1.12C4.6,0.88 5.04,0.66 5.5,0.5C5.96,0.34 6.42,0.22 6.9,0.12C7.38,0.04 7.88,0 8.36,0C8.84,0 9.34,0.04 9.8,0.12C10.28,0.22 10.76,0.34 11.22,0.5C11.68,0.66 12.12,0.88 12.54,1.12C12.96,1.36 13.36,1.64 13.72,1.96C14.1,2.26 14.44,2.62 14.76,2.98C15.08,3.36 15.36,3.76 15.6,4.18C15.84,4.6 16.04,5.04 16.22,5.5C16.38,5.96 16.5,6.42 16.58,6.9C16.68,7.38 16.7,8.12 16.72,8.36C16.74,8.6 16.74,8.12 16.72,8.36" style="fill:rgb(250,176,5);fill-rule:nonzero;"/>
        <path d="M16.72,8.36C16.72,8.84 16.68,9.34 16.58,9.8C16.5,10.28 16.38,10.76 16.22,11.22C16.04,11.68 15.84,12.12 15.6,12.54C15.36,12.96 15.08,13.36 14.76,13.72C14.44,14.1 14.1,14.44 13.72,14.76C13.36,15.08 12.96,15.36 12.54,15.6C12.12,15.84 11.68,16.04 11.22,16.22C10.76,16.38 10.28,16.5 9.8,16.58C9.34,16.68 8.84,16.72 8.36,16.72C7.88,16.72 7.38,16.68 6.9,16.58C6.42,16.5 5.96,16.38 5.5,16.22C5.04,16.04 4.6,15.84 4.18,15.6C3.76,15.36 3.36,15.08 2.98,14.76C2.62,14.44 2.26,14.1 1.96,13.72C1.64,13.36 1.36,12.96 1.12,12.54C0.88,12.12 0.66,11.68 0.5,11.22C0.34,10.76 0.22,10.28 0.12,9.8C0.04,9.34 0,8.84 0,8.36C0,7.88 0.04,7.38 0.12,6.9C0.22,6.42 0.34,5.96 0.5,5.5C0.66,5.04 0.88,4.6 1.12,4.18C1.36,3.76 1.64,3.36 1.96,2.98C2.26,2.62 2.62,2.26 2.98,1.96C3.36,1.64 3.76,1.36 4.18,1.12C4.6,0.88 5.04,0.66 5.5,0.5C5.96,0.34 6.42,0.22 6.9,0.12C7.38,0.04 7.88,0 8.36,0C8.84,0 9.34,0.04 9.8,0.12C10.28,0.22 10.76,0.34 11.22,0.5C11.68,0.66 12.12,0.88 12.54,1.12C12.96,1.36 13.36,1.64 13.72,1.96C14.1,2.26 14.44,2.62 14.76,2.98C15.08,3.36 15.36,3.76 15.6,4.18C15.84,4.6 16.04,5.04 16.22,5.5C16.38,5.96 16.5,6.42 16.58,6.9C16.68,7.38 16.7,8.12 16.72,8.36C16.74,8.6 16.74,8.12 16.72,8.36" style="fill:none;fill-rule:nonzero;stroke:black;stroke-width:2px;"/>
    </g>
    <g transform="matrix(1,0,0,1,110.1,136.915)">
        <path d="M16.72,8.36C16.72,8.84 16.68,9.34 16.58,9.8C16.5,10.28 16.38,10.76 16.22,11.22C16.04,11.68 15.84,12.12 15.6,12.54C15.36,12.96 15.08,13.36 14.76,13.72C14.44,14.1 14.1,14.44 13.72,14.76C13.36,15.08 12.96,15.36 12.54,15.6C12.12,15.84 11.68,16.04 11.22,16.22C10.76,16.38 10.28,16.5 9.8,16.58C9.34,16.68 8.84,16.72 8.36,16.72C7.88,16.72 7.38,16.68 6.9,16.58C6.42,16.5 5.96,16.38 5.5,16.22C5.04,16.04 4.6,15.84 4.18,15.6C3.76,15.36 3.36,15.08 2.98,14.76C2.62,14.44 2.26,14.1 1.96,13.72C1.64,13.36 1.36,12.96 1.12,12.54C0.88,12.12 0.66,11.68 0.5,11.22C0.34,10.76 0.22,10.28 0.12,9.8C0.04,9.34 0,8.84 0,8.36C0,7.88 0.04,7.38 0.12,6.9C0.22,6.42 0.34,5.96 0.5,5.5C0.66,5.04 0.88,4.6 1.12,4.18C1.36,3.76 1.64,3.36 1.96,2.98C2.26,2.62 2.62,2.26 2.98,1.96C3.36,1.64 3.76,1.36 4.18,1.12C4.6,0.88 5.04,0.66 5.5,0.5C5.96,0.34 6.42,0.22 6.9,0.12C7.38,0.04 7.88,0 8.36,0C8.84,0 9.34,0.04 9.8,0.12C10.28,0.22 10.76,0.34 11.22,0.5C11.68,0.66 12.12,0.88 12.54,1.12C12.96,1.36 13.36,1.64 13.72,1.96C14.1,2.26 14.44,2.62 14.76,2.98C15.08,3.36 15.36,3.76 15.6,4.18C15.84,4.6 16.04,5.04 16.22,5.5C16.38,5.96 16.5,6.42 16.58,6.9C16.68,7.38 16.7,8.12 16.72,8.36C16.74,8.6 16.74,8.12 16.72,8.36" style="fill:rgb(64,192,87);fill-rule:nonzero;"/>
        <path d="M16.72,8.36C16.72,8.84 16.68,9.34 16.58,9.8C16.5,10.28 16.38,10.76 16.22,11.22C16.04,11.68 15.84,12.12 15.6,12.54C15.36,12.96 15.08,13.36 14.76,13.72C14.44,14.1 14.1,14.44 13.72,14.76C13.36,15.08 12.96,15.36 12.54,15.6C12.12,15.84 11.68,16.04 11.22,16.22C10.76,16.38 10.28,16.5 9.8,16.58C9.34,16.68 8.84,16.72 8.36,16.72C7.88,16.72 7.38,16.68 6.9,16.58C6.42,16.5 5.96,16.38 5.5,16.22C5.04,16.04 4.6,15.84 4.18,15.6C3.76,15.36 3.36,15.08 2.98,14.76C2.62,14.44 2.26,14.1 1.96,13.72C1.64,13.36 1.36,12.96 1.12,12.54C0.88,12.12 0.66,11.68 0.5,11.22C0.34,10.76 0.22,10.28 0.12,9.8C0.04,9.34 0,8.84 0,8.36C0,7.88 0.04,7.38 0.12,6.9C0.22,6.42 0.34,5.96 0.5,5.5C0.66,5.04 0.88,4.6 1.12,4.18C1.36,3.76 1.64,3.36 1.96,2.98C2.26,2.62 2.62,2.26 2.98,1.96C3.36,1.64 3.76,1.36 4.18,1.12C4.6,0.88 5.04,0.66 5.5,0.5C5.96,0.34 6.42,0.22 6.9,0.12C7.38,0.04 7.88,0 8.36,0C8.84,0 9.34,0.04 9.8,0.12C10.28,0.22 10.76,0.34 11.22,0.5C11.68,0.66 12.12,0.88 12.54,1.12C12.96,1.36 13.36,1.64 13.72,1.96C14.1,2.26 14.44,2.62 14.76,2.98C15.08,3.36 15.36,3.76 15.6,4.18C15.84,4.6 16.04,5.04 16.22,5.5C16.38,5.96 16.5,6.42 16.58,6.9C16.68,7.38 16.7,8.12 16.72,8.36C16.74,8.6 16.74,8.12 16.72,8.36" style="fill:none;fill-rule:nonzero;stroke:black;stroke-width:2px;"/>
    </g>
    <g transform="matrix(1,0,0,1,163.657,190.557)">
        <path d="M63.06,-0.5C75.76,-2.94 91.32,3.58 103.72,10.3C116.1,17.04 131.2,27.6 137.36,39.88C143.5,52.18 143.2,70.04 140.62,84.02C138.06,98 131.74,114.38 121.94,123.8C112.14,133.2 95.9,138.82 81.82,140.46C67.72,142.1 49.68,140.28 37.42,133.64C25.14,127 14.26,112.94 8.22,100.62C2.2,88.3 -1.06,73.48 1.22,59.76C3.5,46.04 11.48,27.88 21.92,18.3C32.36,8.7 56.34,4.94 63.86,2.18C71.4,-0.58 66.8,0.88 67.12,1.76M68.98,-0.82C83.02,-2.22 102.88,5.04 114.68,12.94C126.46,20.82 135.66,33.32 139.74,46.48C143.82,59.64 143.62,77.94 139.2,91.9C134.76,105.86 124.08,121.7 113.2,130.24C102.3,138.76 87.68,143.26 73.9,143.12C60.12,142.98 42.5,137.52 30.5,129.38C18.52,121.24 6.14,107.02 1.98,94.3C-2.2,81.58 0.92,66.64 5.52,53.06C10.14,39.48 18.8,21.42 29.62,12.82C40.46,4.24 63.7,3.26 70.54,1.52C77.38,-0.22 71.16,1.06 70.64,2.4" style="fill:rgb(4,170,247);fill-opacity:0.9;fill-rule:nonzero;"/>
        <path d="M50.46,2.04C62.42,-2.84 80.26,-0.32 93.82,4.44C107.36,9.2 123.56,19.5 131.74,30.6C139.92,41.68 143.54,57.24 142.9,70.96C142.26,84.66 136.62,101.48 127.94,112.88C119.24,124.26 104.1,134.9 90.78,139.3C77.46,143.7 61.3,143.8 48.04,139.3C34.78,134.8 19.28,124.12 11.24,112.3C3.22,100.5 -0.86,82.3 -0.12,68.42C0.64,54.54 5.18,40.72 15.8,29.06C26.4,17.4 52.88,2.94 63.54,-1.52C74.2,-6 79.32,0.9 79.74,2.26M57.58,3.6C70.54,0.02 88.62,0.84 101.52,6.98C114.42,13.12 128.06,28.1 134.98,40.4C141.92,52.72 145.1,67.36 143.1,80.84C141.12,94.32 132.6,111.36 123.04,121.24C113.5,131.1 99.28,137.54 85.8,140.08C72.32,142.64 54.84,142.78 42.16,136.5C29.46,130.24 16.52,114.7 9.68,102.44C2.84,90.2 -0.7,76.22 1.12,63.04C2.94,49.86 11.24,33.32 20.58,23.36C29.94,13.42 51.08,6.84 57.16,3.34C63.26,-0.16 56.42,1.6 57.08,2.36" style="fill:none;fill-rule:nonzero;stroke:black;stroke-opacity:0.9;stroke-width:2px;"/>
    </g>
    <g transform="matrix(1,0,0,1,254.144,244.773)">
        <g>
            <path d="M0,0L-6.12,-1.38L-25.3,-20.96L-32.56,-20.36L-37.96,-14.52L-41.12,-3.8L-42.14,7.94L-37.66,22.52L-58.22,29.7L-60.14,38.16L-57.48,45.6L-50.16,46.9L-41.38,44.62L-32.38,32.3L-29.06,31.68L-25,36.44L-12.1,59.7L-4.98,64.76L-2.38,64.3L-1.38,60.72L-12.62,16.04L-10.04,12.48L-5.06,12.18L4.64,14.52L10.56,19.6L20.76,21.02L30.86,19.6L36.12,10.76L36.1,2.12L18.4,4.6L14.1,3.72L13.66,-0.88L18.34,-19.24L14.12,-20.92L8.26,-17.86L3.06,-10.58L-0.8,-3.08L0,0" style="fill:rgb(64,192,87);"/>
            <path d="M0,0C-1.02,-0.24 -1.9,2.1 -6.12,-1.38C-10.34,-4.88 -20,-18.76 -25.3,-20.96C-30.62,-23.14 -35.14,-19.34 -37.96,-14.52C-40.76,-9.72 -42.2,1.76 -42.14,7.94C-42.1,14.1 -34.98,18.9 -37.66,22.52C-40.34,26.16 -54.92,25.84 -58.22,29.7C-61.54,33.54 -60.3,43.1 -57.48,45.6C-54.68,48.08 -46.12,46.94 -41.38,44.62C-36.64,42.3 -33.94,29.16 -29.06,31.68C-24.18,34.18 -16.7,54.86 -12.1,59.7C-7.48,64.54 -1.3,68 -1.38,60.72C-1.48,53.44 -13.62,23.74 -12.62,16.04C-11.62,8.34 0.76,13.94 4.64,14.52C8.5,15.12 6.2,18.76 10.56,19.6C14.94,20.46 26.6,22.52 30.86,19.6C35.12,16.7 38.88,4.78 36.1,2.12C33.3,-0.52 17.06,7.28 14.1,3.72C11.14,0.14 19.3,-15.66 18.34,-19.24C17.36,-22.84 11.46,-20.56 8.26,-17.86C5.08,-15.16 0.58,-6.06 -0.8,-3.08C-2.18,-0.1 -0.14,-0.52 0,0M0,0C-1.02,-0.24 -1.9,2.1 -6.12,-1.38C-10.34,-4.88 -20,-18.76 -25.3,-20.96C-30.62,-23.14 -35.14,-19.34 -37.96,-14.52C-40.76,-9.72 -42.2,1.76 -42.14,7.94C-42.1,14.1 -34.98,18.9 -37.66,22.52C-40.34,26.16 -54.92,25.84 -58.22,29.7C-61.54,33.54 -60.3,43.1 -57.48,45.6C-54.68,48.08 -46.12,46.94 -41.38,44.62C-36.64,42.3 -33.94,29.16 -29.06,31.68C-24.18,34.18 -16.7,54.86 -12.1,59.7C-7.48,64.54 -1.3,68 -1.38,60.72C-1.48,53.44 -13.62,23.74 -12.62,16.04C-11.62,8.34 0.76,13.94 4.64,14.52C8.5,15.12 6.2,18.76 10.56,19.6C14.94,20.46 26.6,22.52 30.86,19.6C35.12,16.7 38.88,4.78 36.1,2.12C33.3,-0.52 17.06,7.28 14.1,3.72C11.14,0.14 19.3,-15.66 18.34,-19.24C17.36,-22.84 11.46,-20.56 8.26,-17.86C5.08,-15.16 0.58,-6.06 -0.8,-3.08C-2.18,-0.1 -0.14,-0.52 0,0" style="fill:none;stroke:rgb(8,127,91);stroke-width:2px;"/>
        </g>
    </g>
    <g transform="matrix(1,0,0,1,167.196,260.608)">
        <g>
            <path d="M-1.4,2.1C22.14,1.8 118.68,0.22 142.16,-0.34M2.26,1.12C25.56,1.06 118.54,2.62 141.04,2.56" style="fill:none;fill-rule:nonzero;stroke:black;stroke-opacity:0.9;stroke-width:2px;"/>
        </g>
    </g>
    <g transform="matrix(1,0,0,1,184.223,209.031)">
        <g>
            <path d="M0,0C0.44,1.26 0.3,5.28 2.58,7.6C4.86,9.94 9.38,12.28 13.72,14C18.04,15.7 22.18,17.16 28.52,17.86C34.86,18.56 43.34,18.56 51.74,18.2C60.12,17.86 71.66,17.64 78.8,15.74C85.96,13.84 91.44,9.56 94.62,6.8C97.82,4.02 97.42,0.4 97.98,-0.88M0,0C0.44,1.26 0.3,5.28 2.58,7.6C4.86,9.94 9.38,12.28 13.72,14C18.04,15.7 22.18,17.16 28.52,17.86C34.86,18.56 43.34,18.56 51.74,18.2C60.12,17.86 71.66,17.64 78.8,15.74C85.96,13.84 91.44,9.56 94.62,6.8C97.82,4.02 97.42,0.4 97.98,-0.88" style="fill:none;fill-rule:nonzero;stroke:black;stroke-opacity:0.9;stroke-width:2px;"/>
        </g>
    </g>
    <g transform="matrix(1,0,0,1,211.204,185.937)">
        <path d="M21.22,2.34C26.46,-2.78 32.62,-1.22 37.3,5.42C41.96,12.08 47.18,27.4 49.26,42.26C51.32,57.1 51.1,78.74 49.68,94.56C48.28,110.38 45.38,127.98 40.74,137.16C36.1,146.34 27.48,151.5 21.9,149.6C16.34,147.72 10.72,137.2 7.3,125.86C3.88,114.5 2.1,97.56 1.36,81.52C0.62,65.48 -0.68,43.06 2.88,29.58C6.46,16.1 18.72,5.4 22.8,0.62C26.86,-4.18 27.3,-0.18 27.32,0.84M32.78,3.48C38.26,7.36 45.2,24.38 48.52,38C51.84,51.6 53.5,69.64 52.68,85.14C51.88,100.66 47.6,120.52 43.64,131C39.68,141.5 34.18,147.52 28.92,148.12C23.68,148.74 16.6,144.72 12.1,134.64C7.6,124.58 3.38,103.28 1.96,87.7C0.52,72.1 1.04,54.54 3.52,41.08C5.98,27.62 12.04,12.8 16.8,6.98C21.56,1.16 29.62,6.44 32.1,6.14C34.56,5.82 31.28,4.4 31.6,5.16" style="fill:none;fill-rule:nonzero;stroke:black;stroke-opacity:0.9;stroke-width:2px;"/>
    </g>
    <g transform="matrix(1,0,0,1,189.289,315.086)">
        <g>
            <path d="M0,0C2.28,-2.4 8.96,-11.38 13.72,-14.44C18.46,-17.52 22.18,-17.7 28.52,-18.44C34.86,-19.16 43.34,-19.16 51.74,-18.8C60.12,-18.44 71.66,-18.22 78.8,-16.26C85.96,-14.3 91.44,-9.88 94.62,-7.02C97.82,-4.16 97.42,-0.42 97.98,0.9M0,0C2.28,-2.4 8.96,-11.38 13.72,-14.44C18.46,-17.52 22.18,-17.7 28.52,-18.44C34.86,-19.16 43.34,-19.16 51.74,-18.8C60.12,-18.44 71.66,-18.22 78.8,-16.26C85.96,-14.3 91.44,-9.88 94.62,-7.02C97.82,-4.16 97.42,-0.42 97.98,0.9" style="fill:none;fill-rule:nonzero;stroke:black;stroke-opacity:0.9;stroke-width:2px;"/>
        </g>
    </g>
    <g transform="matrix(1,0,0,1,165.643,419.805)">
        <text x="0px" y="0px" style="font-family:'LucidaGrande', 'Lucida Grande', sans-serif;font-weight:500;font-size:47.646px;">Next.js</text>
    </g>
    <g transform="matrix(1,0,0,1,159.143,54)">
        <text x="0px" y="0px" style="font-family:'LucidaGrande', 'Lucida Grande', sans-serif;font-weight:500;font-size:59.374px;">View</text>
    </g>
    <g transform="matrix(1,0,0,1,836.981,153.283)">
        <g>
            <path d="M-1.8,-0.94C-1.54,4.38 -0.72,24.92 0.82,33.94C2.36,42.96 -0.64,50.14 7.4,53.18C15.46,56.22 17.68,51.92 49.1,52.2C80.54,52.48 143.22,54.68 195.96,54.8C248.7,54.94 329.06,52.56 365.52,52.96C401.98,53.36 404.6,58.18 414.72,57.26C424.84,56.36 422.96,51.22 426.28,47.52C429.6,43.82 433.44,41.16 434.66,35.06C435.9,28.98 434.54,17.32 433.62,11C432.72,4.68 432.26,0.64 429.18,-2.84C426.1,-6.3 425.64,-8.02 415.16,-9.82C404.66,-11.62 402.66,-13.14 366.22,-13.6C329.78,-14.06 250.12,-12.24 196.5,-12.56C142.88,-12.9 76.12,-15.36 44.46,-15.56C12.8,-15.74 13.58,-16.26 6.52,-13.68C-0.54,-11.12 3.48,-2.56 2.16,-0.14M1.66,-3.52C1.62,3.2 -1.9,28.04 -1.24,36.8C-0.56,45.56 -2.92,46.32 5.68,49.08C14.28,51.82 18.14,52.24 50.36,53.32C82.6,54.38 146.18,54.86 199.1,55.48C252.02,56.1 332.76,57 367.88,57.02C403,57.04 400.56,56.28 409.86,55.6C419.16,54.92 419.96,55.82 423.68,52.98C427.4,50.14 430.22,45.78 432.12,38.56C434,31.34 435.4,16.22 435.02,9.66C434.64,3.1 433.46,2.48 429.88,-0.8C426.3,-4.08 424.08,-7.54 413.54,-10C403,-12.48 403.02,-15.22 366.62,-15.62C330.22,-16 248.68,-12.1 195.12,-12.38C141.54,-12.66 76.46,-17.34 45.2,-17.28C13.94,-17.2 14.96,-15.06 7.56,-11.96C0.16,-8.88 1.6,-1.04 0.78,1.28" style="fill:none;fill-rule:nonzero;stroke:black;stroke-width:2px;"/>
        </g>
    </g>
    <g transform="matrix(1,0,0,1,861.994,154.231)">
        <g>
            <path d="M-0.94,-0.3C30,0 148.66,-1.22 187.74,-0.1C226.84,1.04 225.2,3.36 233.58,6.46C241.96,9.56 238.4,13.46 238.02,18.48C237.66,23.52 239.32,32.94 231.38,36.6C223.46,40.26 221.3,40.42 190.42,40.42C159.54,40.42 78.62,37.36 46.1,36.58C13.58,35.8 4.3,40.58 -4.74,35.72C-13.78,30.86 -8.8,13.36 -8.14,7.42C-7.48,1.48 -2.2,0.94 -0.82,0.1M2.98,-2.54C33.38,-1.72 147.36,1.96 185.64,2.8C223.92,3.64 224,-0.22 232.62,2.54C241.26,5.32 238.14,13.74 237.42,19.46C236.72,25.2 235.9,33.58 228.34,36.92C220.78,40.26 223.28,38.9 192.06,39.52C160.86,40.14 73.22,41.28 41.1,40.66C8.98,40.06 7.06,41.86 -0.66,35.84C-8.38,29.8 -5.38,10.62 -5.22,4.52C-5.06,-1.58 -0.72,0.3 0.28,-0.76" style="fill:none;fill-rule:nonzero;stroke:black;stroke-width:2px;"/>
        </g>
    </g>
    <g transform="matrix(1,0,0,1,1168.26,163.094)">
        <g>
            <path d="M-0.3,-0.4C1.26,-1.62 1.22,-6.88 7.54,-8.24C13.84,-9.58 32.74,-11.82 37.58,-8.54C42.42,-5.26 37.06,5.78 36.58,11.4C36.1,17.04 39.12,22.08 34.7,25.24C30.3,28.4 15.96,31.38 10.12,30.34C4.28,29.32 1.14,23.34 -0.34,19.04C-1.82,14.74 1.24,7.88 1.26,4.56C1.26,1.26 -0.08,-0.08 -0.28,-0.82M-3.36,-2.72C-2,-4.56 -1.24,-11.18 5.46,-11.9C12.16,-12.62 31.74,-11.22 36.82,-7C41.88,-2.76 35.54,8.2 35.84,13.5C36.14,18.82 43.46,22.22 38.62,24.86C33.78,27.48 13.16,29.7 6.8,29.3C0.42,28.9 1.54,25.68 0.4,22.48C-0.72,19.3 -0.52,13.34 0,10.14C0.52,6.94 3.28,5.12 3.56,3.3" style="fill:none;fill-rule:nonzero;stroke:black;stroke-width:2px;"/>
        </g>
    </g>
    <g transform="matrix(1,0,0,1,1217.79,163.034)">
        <g>
            <path d="M-0.4,-0.36C0.76,-1.36 0.3,-4.98 6.04,-6.4C11.78,-7.8 28.58,-11.66 34.02,-8.8C39.46,-5.94 38.88,4.08 38.7,10.76C38.52,17.42 37.6,28.36 32.98,31.2C28.34,34.02 16.7,28.82 10.94,27.72C5.18,26.62 0.6,27.54 -1.54,24.64C-3.68,21.76 -2.02,14.46 -1.9,10.38C-1.78,6.28 -1.16,1.44 -0.82,0.1M-3.54,-2.62C-2.52,-4.3 -2.32,-9.08 4.74,-9.86C11.78,-10.66 32.98,-11.12 38.72,-7.4C44.44,-3.66 39.5,6.96 39.08,12.5C38.66,18.04 41.44,22.52 36.18,25.84C30.9,29.14 13.74,32.92 7.48,32.42C1.2,31.9 -0.58,26.56 -1.44,22.74C-2.3,18.94 1.62,13.78 2.32,9.54C3,5.32 2.82,-1.48 2.72,-2.62" style="fill:none;fill-rule:nonzero;stroke:black;stroke-width:2px;"/>
        </g>
    </g>
    <g transform="matrix(1,0,0,1,836.981,225.227)">
        <g>
            <path d="M-0.36,1.1C0.12,6.56 1.62,23.8 2.58,32.26C3.54,40.72 -1.96,48.56 5.42,51.86C12.78,55.16 14.24,51.2 46.76,52.04C79.28,52.9 147.44,56.84 200.54,56.98C253.64,57.14 329.78,53.56 365.34,52.94C400.92,52.32 403.7,53.96 414,53.28C424.28,52.62 423.84,51.62 427.04,48.94C430.26,46.26 431.72,43.18 433.26,37.2C434.78,31.22 436.9,19.88 436.2,13.08C435.48,6.26 432.88,0.2 429,-3.64C425.1,-7.48 423.32,-8.24 412.9,-9.98C402.48,-11.72 402.86,-13.22 366.46,-14.08C330.06,-14.94 247.82,-15.08 194.48,-15.16C141.14,-15.24 77.7,-15.18 46.46,-14.54C15.24,-13.92 14.9,-14.06 7.1,-11.4C-0.68,-8.74 0.68,-0.28 -0.26,1.4M-3.46,-0.4C-3.14,5.3 -0.78,25.1 1.46,34.24C3.68,43.36 2.42,51.24 9.96,54.38C17.52,57.52 15.34,53.56 46.8,53.08C78.28,52.6 145.3,50.82 198.78,51.48C252.24,52.12 331.4,56.1 367.62,57C403.84,57.9 406.54,58.38 416.06,56.86C425.6,55.32 422.54,51.56 424.86,47.84C427.16,44.1 428.82,40.32 429.96,34.5C431.08,28.66 431.68,18.92 431.62,12.84C431.56,6.74 433.16,1.82 429.58,-2.02C426,-5.86 420.52,-7.86 410.1,-10.26C399.66,-12.64 402.12,-15.32 367,-16.34C331.88,-17.34 253.7,-16.44 199.36,-16.34C145.02,-16.24 72.76,-15.82 40.94,-15.74C9.12,-15.64 15.76,-19.04 8.44,-15.82C1.14,-12.58 -1.44,1.2 -2.9,3.64" style="fill:none;fill-rule:nonzero;stroke:black;stroke-width:2px;"/>
        </g>
    </g>
    <g transform="matrix(1,0,0,1,861.994,226.176)">
        <g>
            <path d="M1.1,1.46C32.18,1.18 147.54,-2.52 186.08,-2.08C224.6,-1.64 223.62,-0.06 232.26,4.12C240.9,8.32 237.66,17.68 237.88,23.06C238.1,28.46 241.48,33.66 233.56,36.44C225.64,39.2 222.3,39.54 190.4,39.7C158.5,39.86 74.42,38.26 42.12,37.36C9.84,36.46 4.7,38.86 -3.32,34.3C-11.34,29.74 -6.78,15.72 -6,10C-5.24,4.26 0.36,1.56 1.26,-0.1M-1.22,0.14C30.6,0.1 151.76,-1.26 190.4,-0.24C229.04,0.78 222.82,3.08 230.62,6.3C238.42,9.54 237.02,14.08 237.2,19.14C237.38,24.2 239.18,33.46 231.64,36.66C224.12,39.88 223.6,38.76 192.04,38.42C160.5,38.06 75.32,35.3 42.36,34.52C9.38,33.72 2.8,38.02 -5.8,33.66C-14.4,29.32 -10.84,14.22 -9.28,8.44C-7.74,2.64 1.98,0 3.46,-1.06" style="fill:none;fill-rule:nonzero;stroke:black;stroke-width:2px;"/>
        </g>
    </g>
    <g transform="matrix(1,0,0,1,1168.26,235.039)">
        <g>
            <path d="M1.46,-2.08C2.46,-3.86 -0.08,-8.46 5.54,-9.56C11.18,-10.66 29.3,-12.54 35.24,-8.68C41.16,-4.84 41.28,7.92 41.16,13.58C41.04,19.24 39.84,23.1 34.54,25.22C29.24,27.36 15.06,27.16 9.38,26.38C3.7,25.58 2.02,23.74 0.44,20.46C-1.16,17.18 -0.48,9.9 -0.16,6.7C0.16,3.5 2.3,2.48 2.3,1.26M-0.68,2.04C1.04,0.56 4.08,-5.04 9.74,-6.6C15.4,-8.14 28.96,-9.9 33.24,-7.22C37.54,-4.54 34.66,4.16 35.5,9.5C36.36,14.84 43.34,21.32 38.36,24.82C33.4,28.34 11.82,30.58 5.68,30.56C-0.44,30.52 2.88,28.74 1.58,24.66C0.26,20.58 -1.92,10.34 -2.16,6.08C-2.4,1.82 -0.42,0.48 0.16,-0.84" style="fill:none;fill-rule:nonzero;stroke:black;stroke-width:2px;"/>
        </g>
    </g>
    <g transform="matrix(1,0,0,1,1217.79,234.978)">
        <g>
            <path d="M-2.08,-2.34C-1.48,-4.04 -1.26,-8.42 4.72,-8.74C10.72,-9.04 27.84,-7.44 33.86,-4.22C39.9,-1 41.02,4.8 40.88,10.58C40.72,16.36 38.6,27.48 32.96,30.46C27.3,33.46 12.48,29.7 6.96,28.48C1.46,27.28 1,25.82 -0.12,23.22C-1.24,20.64 0,16.84 0.24,12.94C0.46,9.06 1.42,2.04 1.26,-0.1M1.22,1.66C1.4,0.16 -3.5,-4.56 2.72,-6.12C8.92,-7.68 31.86,-10.78 38.48,-7.72C45.1,-4.66 42.78,5.62 42.4,12.24C42.02,18.88 41.76,29.7 36.16,32.04C30.54,34.38 14.64,28.18 8.74,26.26C2.82,24.36 2.48,22.72 0.74,20.58C-1.02,18.44 -1.4,17.38 -1.76,13.48C-2.12,9.56 -1.8,-0.54 -1.42,-2.92" style="fill:none;fill-rule:nonzero;stroke:black;stroke-width:2px;"/>
        </g>
    </g>
    <g transform="matrix(1,0,0,1,836.981,295.555)">
        <g>
            <path d="M-2.34,-0.22C-2.54,5.48 -1.82,23.06 0.24,32.1C2.3,41.14 2.26,50.7 10,54.02C17.72,57.34 14.96,52.2 46.6,52.04C78.24,51.86 146.56,52.62 199.82,53C253.06,53.4 330.66,53.98 366.12,54.38C401.58,54.78 401.98,55.98 412.58,55.42C423.16,54.86 426.2,54.2 429.62,51.02C433.04,47.86 432.34,42.76 433.06,36.4C433.78,30.04 434.58,19.66 433.94,12.92C433.3,6.16 433.08,0.14 429.24,-4.1C425.4,-8.36 421,-11.08 410.88,-12.58C400.74,-14.08 404.44,-13.02 368.48,-13.06C332.5,-13.12 249.14,-12.9 195.06,-12.88C141,-12.86 74.9,-12.9 44.04,-13C13.2,-13.08 17.58,-15.68 9.96,-13.44C2.36,-11.2 0.28,-1.84 -1.58,0.46M0.82,-2.42C0.1,3.68 -3.58,25.22 -2.12,34C-0.64,42.8 1.52,47.2 9.64,50.38C17.74,53.54 15.2,52.66 46.54,53.06C77.88,53.46 143.96,52.92 197.66,52.72C251.38,52.52 332.76,51.86 368.8,51.86C404.84,51.88 403.9,52.94 413.9,52.8C423.9,52.64 426.14,53.04 428.78,51C431.4,48.96 428.54,47 429.66,40.6C430.78,34.2 435.46,19.8 435.5,12.58C435.56,5.36 433.48,1.72 429.96,-2.74C426.44,-7.2 425.54,-12.2 414.34,-14.22C403.14,-16.22 399.64,-15.02 362.74,-14.8C325.84,-14.56 245.96,-13.1 192.94,-12.86C139.9,-12.62 75.8,-13.58 44.56,-13.36C13.32,-13.16 12.52,-14.2 5.5,-11.6C-1.54,-9 2.82,0.06 2.4,2.2" style="fill:none;fill-rule:nonzero;stroke:black;stroke-width:2px;"/>
        </g>
    </g>
    <g transform="matrix(1,0,0,1,861.994,296.504)">
        <g>
            <path d="M-0.22,-0.88C31.12,-0.06 146.82,1.7 185.92,2.5C225.02,3.3 225.78,0.66 234.42,3.96C243.08,7.26 238.68,16.8 237.86,22.34C237.06,27.88 237.26,34.54 229.58,37.2C221.92,39.86 222.72,37.82 191.84,38.28C160.94,38.74 76.44,40.62 44.26,39.92C12.08,39.22 7.28,39.48 -1.24,34.1C-9.76,28.74 -7.2,13.4 -6.8,7.74C-6.42,2.08 0.16,1.76 1.1,0.14M-3.24,-3.42C28.98,-3.02 150.64,-2.14 190.18,-0.58C229.7,1 226.1,2.94 233.92,6.04C241.76,9.14 237.34,12.72 237.18,18.02C237,23.32 240.06,34.8 232.9,37.84C225.74,40.88 225.44,36.14 194.22,36.24C163,36.34 78.42,38.92 45.6,38.44C12.8,37.96 5.5,38.94 -2.64,33.38C-10.76,27.8 -4.16,10.66 -3.18,5C-2.22,-0.68 2.86,0.32 3.2,-0.68" style="fill:none;fill-rule:nonzero;stroke:black;stroke-width:2px;"/>
        </g>
    </g>
    <g transform="matrix(1,0,0,1,1168.26,305.367)">
        <g>
            <path d="M-0.88,-2.24C1.2,-3.44 4.14,-6.3 10.12,-7.38C16.12,-8.46 30.02,-11.54 35.06,-8.7C40.12,-5.88 40.38,3.72 40.42,9.6C40.46,15.5 40.72,23.5 35.3,26.66C29.9,29.8 13.34,29.2 7.96,28.5C2.58,27.82 4.4,26.32 3,22.54C1.62,18.78 0.14,9.48 -0.36,5.9C-0.84,2.32 -0.04,2.28 0.04,1.1M3.08,1.82C5.24,0 4.42,-9.08 9.4,-10.6C14.4,-12.1 27.6,-10.8 32.98,-7.24C38.38,-3.68 41.84,5.04 41.72,10.76C41.58,16.46 37.36,24.38 32.22,27C27.08,29.62 16.52,27.58 10.84,26.5C5.16,25.4 0.4,24.12 -1.82,20.52C-4.04,16.9 -2.22,8.46 -2.46,4.86C-2.7,1.26 -3.98,0.16 -3.28,-1.1" style="fill:none;fill-rule:nonzero;stroke:black;stroke-width:2px;"/>
        </g>
    </g>
    <g transform="matrix(1,0,0,1,1217.79,305.306)">
        <g>
            <path d="M-2.24,2.24C-1.06,0.9 0.88,-7.7 6.9,-8.9C12.92,-10.1 28.86,-8.32 33.86,-4.94C38.86,-1.56 36.82,5.68 36.9,11.36C36.98,17.02 39.02,25.76 34.38,29.04C29.76,32.34 14.5,32.06 9.1,31.06C3.7,30.06 3.58,26.42 1.96,23.04C0.36,19.64 -0.42,14.5 -0.56,10.68C-0.7,6.88 1.2,2.26 1.1,0.14M1,1.32C2.06,0.38 -0.22,-4.68 6.02,-6.38C12.28,-8.06 33.4,-12.14 38.46,-8.84C43.52,-5.54 36.36,6.96 36.34,13.42C36.32,19.86 42.38,27.08 38.34,29.88C34.28,32.68 17.72,31.78 11.98,30.2C6.24,28.6 6.4,23.64 3.9,20.28C1.42,16.92 -2.04,13.84 -2.98,10.04C-3.9,6.22 -2.14,-1.44 -1.68,-2.54" style="fill:none;fill-rule:nonzero;stroke:black;stroke-width:2px;"/>
        </g>
    </g>
    <g transform="matrix(1,0,0,1,993.151,401.102)">
        <text x="0px" y="0px" style="font-family:'LucidaGrande', 'Lucida Grande', sans-serif;font-weight:500;font-size:40px;">Express.js</text>
    </g>
    <g transform="matrix(1,0,0,1,935.956,60.2656)">
        <text x="0px" y="0px" style="font-family:'LucidaGrande', 'Lucida Grande', sans-serif;font-weight:500;font-size:48.094px;">Controller</text>
    </g>
    <g transform="matrix(1,0,0,1,1714.46,152.517)">
        <path d="M0,0M0,0M0.26,24.08C5.76,17.78 11.24,11.46 21.26,-0.06M0.26,24.08C5.52,18.04 10.76,12 21.26,-0.06M0.54,48.16C16.28,30.06 32.02,11.94 42.52,-0.14M0.54,48.16C16.84,29.4 33.14,10.66 42.52,-0.14M-0.52,73.76C21.74,48.16 43.98,22.58 63.78,-0.2M-0.52,73.76C21.06,48.94 42.62,24.12 63.78,-0.2M-0.24,97.84C21.86,72.4 43.96,46.98 85.04,-0.28M-0.24,97.84C30.18,62.84 60.58,27.86 85.04,-0.28M0.02,121.92C40.5,75.34 80.98,28.78 106.3,-0.34M0.02,121.92C28.98,88.62 57.92,55.3 106.3,-0.34M0.28,146C36.54,104.3 72.78,62.6 127.56,-0.42M0.28,146C42.76,97.12 85.26,48.26 127.56,-0.42M0.56,170.08C56.36,105.88 112.18,41.66 148.82,-0.48M0.56,170.08C44.64,119.38 88.72,68.66 148.82,-0.48M21.82,170.02C54.2,132.76 86.58,95.5 170.08,-0.56M21.82,170.02C66.28,118.84 110.76,67.68 170.08,-0.56M43.08,169.94C78.6,129.08 114.12,88.2 182.16,9.94M43.08,169.94C89.56,116.46 136.04,62.98 182.16,9.94M64.34,169.88C104.38,123.8 144.42,77.74 182.42,34.02M64.34,169.88C102.48,126 140.62,82.12 182.42,34.02M85.6,169.8C109.84,141.9 134.1,114 181.38,59.62M85.6,169.8C123.4,126.32 161.2,82.82 181.38,59.62M106.86,169.74C124.68,149.22 142.52,128.7 181.64,83.7M106.86,169.74C133.64,138.92 160.42,108.12 181.64,83.7M128.12,169.66C145.2,150 162.28,130.36 181.9,107.78M128.12,169.66C148.44,146.3 168.76,122.92 181.9,107.78M149.38,169.6C156.6,161.28 163.84,152.96 182.18,131.86M149.38,169.6C157.52,160.24 165.66,150.88 182.18,131.86M0.38,170.28M0.38,170.28M24.46,170.02C17.16,163.68 9.86,157.34 0.3,149.02M24.46,170.02C16.64,163.24 8.84,156.44 0.3,149.02M48.54,169.76C38.86,161.34 29.18,152.92 0.24,127.76M48.54,169.76C31.88,155.28 15.22,140.78 0.24,127.76M72.62,169.48C57.26,156.14 41.9,142.78 0.16,106.5M72.62,169.48C58.02,156.8 43.44,144.12 0.16,106.5M98.2,170.54C71.04,146.92 43.88,123.3 0.1,85.24M98.2,170.54C62.42,139.42 26.64,108.32 0.1,85.24M122.3,170.26C74.36,128.6 26.44,86.94 0.02,63.98M122.3,170.26C74.88,129.06 27.48,87.86 0.02,63.98M146.38,170C97.12,127.18 47.86,84.36 -0.04,42.72M146.38,170C91,121.86 35.62,73.72 -0.04,42.72M170.46,169.74C102.88,110.98 35.3,52.24 -0.1,21.46M170.46,169.74C123.56,128.96 76.66,88.2 -0.1,21.46M170.38,148.48C121.02,105.56 71.66,62.64 -0.18,0.2M170.38,148.48C115.48,100.74 60.58,53.02 -0.18,0.2M170.32,127.22C123.72,86.72 77.14,46.22 10.32,-11.86M170.32,127.22C115.36,79.44 60.4,31.66 10.32,-11.86M170.24,105.96C121.52,63.6 72.8,21.24 34.4,-12.14M170.24,105.96C140.4,80 110.56,54.06 34.4,-12.14M170.18,84.7C141.58,59.84 112.98,34.98 58.48,-12.4M170.18,84.7C129.86,49.64 89.54,14.58 58.48,-12.4M170.1,63.44C146.06,42.52 122.02,21.62 84.08,-11.36M170.1,63.44C137.14,34.76 104.16,6.1 84.08,-11.36M170.04,42.18C146.38,21.6 122.72,1.04 108.16,-11.62M170.04,42.18C146.34,21.58 122.66,0.98 108.16,-11.62M169.98,20.92C158.66,11.08 147.34,1.24 132.24,-11.88M169.98,20.92C161.98,13.98 154,7.04 132.24,-11.88" style="fill:none;fill-rule:nonzero;stroke:rgb(192,87,136);stroke-width:2px;"/>
        <path d="M0,0L169.96,0M0,0L169.96,0M169.96,0L169.96,169.96M169.96,0L169.96,169.96M169.96,169.96L0,169.96M169.96,169.96L0,169.96M0,169.96L0,0M0,169.96L0,0" style="fill:none;fill-rule:nonzero;stroke:black;stroke-width:4px;"/>
    </g>
    <g transform="matrix(1,0,0,1,1750.01,181.42)">
        <path d="M102.12,14.04C102.12,14.86 101.86,15.68 101.36,16.48C100.84,17.28 100.06,18.08 99.04,18.84C98.04,19.6 96.76,20.36 95.28,21.06C93.8,21.76 92.08,22.44 90.18,23.06C88.28,23.7 86.16,24.28 83.88,24.8C81.62,25.32 79.16,25.8 76.6,26.2C74.04,26.6 71.3,26.96 68.52,27.24C65.76,27.52 62.84,27.74 59.94,27.88C57.02,28.02 54.02,28.08 51.06,28.08C48.1,28.08 45.1,28.02 42.2,27.88C39.28,27.74 36.38,27.52 33.6,27.24C30.82,26.96 28.1,26.6 25.54,26.2C22.98,25.8 20.5,25.32 18.24,24.8C15.98,24.28 13.84,23.7 11.94,23.06C10.04,22.44 8.32,21.76 6.84,21.06C5.36,20.36 4.1,19.6 3.08,18.84C2.06,18.08 1.28,17.28 0.78,16.48C0.26,15.68 0,14.86 0,14.04C0,13.22 0.26,12.4 0.78,11.6C1.28,10.8 2.06,10 3.08,9.24C4.1,8.48 5.36,7.72 6.84,7.02C8.32,6.32 10.04,5.64 11.94,5.02C13.84,4.4 15.98,3.8 18.24,3.28C20.5,2.76 22.98,2.28 25.54,1.88C28.1,1.48 30.82,1.12 33.6,0.84C36.38,0.56 39.28,0.36 42.2,0.22C45.1,0.08 48.1,0 51.06,0C54.02,0 57.02,0.08 59.94,0.22C62.84,0.36 65.76,0.56 68.52,0.84C71.3,1.12 74.04,1.48 76.6,1.88C79.16,2.28 81.62,2.76 83.88,3.28C86.16,3.8 88.28,4.4 90.18,5.02C92.08,5.64 93.8,6.32 95.28,7.02C96.76,7.72 98.04,8.48 99.04,9.24C100.06,10 100.84,10.8 101.36,11.6C101.86,12.4 102,13.64 102.12,14.04C102.26,14.44 102.26,13.64 102.12,14.04" style="fill:none;fill-rule:nonzero;stroke:black;stroke-width:4px;"/>
    </g>
    <g transform="matrix(1,0,0,1,1750.95,196.772)">
        <g>
            <path d="M0,0C1.68,14 7.1,67.42 10.04,83.96C12.98,100.48 10.5,95.58 17.68,99.22C24.86,102.84 41.92,105.56 53.14,105.74C64.36,105.92 78.44,104 84.98,100.28C91.52,96.56 89.86,100.1 92.36,83.42C94.86,66.76 98.74,14.12 100.02,0.26M0,0C1.68,14 7.1,67.42 10.04,83.96C12.98,100.48 10.5,95.58 17.68,99.22C24.86,102.84 41.92,105.56 53.14,105.74C64.36,105.92 78.44,104 84.98,100.28C91.52,96.56 89.86,100.1 92.36,83.42C94.86,66.76 98.74,14.12 100.02,0.26" style="fill:none;fill-rule:nonzero;stroke:black;stroke-width:4px;"/>
        </g>
    </g>
    <g transform="matrix(1,0,0,1,1794.75,223.573)">
        <path d="M12.26,6.14C12.26,6.48 12.24,6.86 12.18,7.2C12.12,7.54 12.02,7.9 11.9,8.24C11.78,8.56 11.62,8.9 11.44,9.2C11.28,9.5 11.06,9.8 10.84,10.08C10.6,10.36 10.36,10.6 10.08,10.84C9.8,11.06 9.5,11.28 9.2,11.44C8.9,11.62 8.56,11.78 8.24,11.9C7.9,12.02 7.54,12.12 7.2,12.18C6.86,12.24 6.48,12.26 6.14,12.26C5.78,12.26 5.42,12.24 5.06,12.18C4.72,12.12 4.38,12.02 4.04,11.9C3.7,11.78 3.38,11.62 3.06,11.44C2.76,11.28 2.46,11.06 2.2,10.84C1.92,10.6 1.66,10.36 1.44,10.08C1.2,9.8 1,9.5 0.82,9.2C0.64,8.9 0.5,8.56 0.36,8.24C0.24,7.9 0.16,7.54 0.1,7.2C0.04,6.86 0,6.48 0,6.14C0,5.78 0.04,5.42 0.1,5.06C0.16,4.72 0.24,4.38 0.36,4.04C0.5,3.7 0.64,3.38 0.82,3.06C1,2.76 1.2,2.46 1.44,2.2C1.66,1.92 1.92,1.66 2.2,1.44C2.46,1.2 2.76,1 3.06,0.82C3.38,0.64 3.7,0.5 4.04,0.36C4.38,0.24 4.72,0.16 5.06,0.1C5.42,0.04 5.78,0 6.14,0C6.48,0 6.86,0.04 7.2,0.1C7.54,0.16 7.9,0.24 8.24,0.36C8.56,0.5 8.9,0.64 9.2,0.82C9.5,1 9.8,1.2 10.08,1.44C10.36,1.66 10.6,1.92 10.84,2.2C11.06,2.46 11.28,2.76 11.44,3.06C11.62,3.38 11.78,3.7 11.9,4.04C12.02,4.38 12.12,4.72 12.18,5.06C12.24,5.42 12.26,5.96 12.26,6.14C12.28,6.32 12.28,5.96 12.26,6.14" style="fill-rule:nonzero;"/>
        <path d="M12.26,6.14C12.26,6.48 12.24,6.86 12.18,7.2C12.12,7.54 12.02,7.9 11.9,8.24C11.78,8.56 11.62,8.9 11.44,9.2C11.28,9.5 11.06,9.8 10.84,10.08C10.6,10.36 10.36,10.6 10.08,10.84C9.8,11.06 9.5,11.28 9.2,11.44C8.9,11.62 8.56,11.78 8.24,11.9C7.9,12.02 7.54,12.12 7.2,12.18C6.86,12.24 6.48,12.26 6.14,12.26C5.78,12.26 5.42,12.24 5.06,12.18C4.72,12.12 4.38,12.02 4.04,11.9C3.7,11.78 3.38,11.62 3.06,11.44C2.76,11.28 2.46,11.06 2.2,10.84C1.92,10.6 1.66,10.36 1.44,10.08C1.2,9.8 1,9.5 0.82,9.2C0.64,8.9 0.5,8.56 0.36,8.24C0.24,7.9 0.16,7.54 0.1,7.2C0.04,6.86 0,6.48 0,6.14C0,5.78 0.04,5.42 0.1,5.06C0.16,4.72 0.24,4.38 0.36,4.04C0.5,3.7 0.64,3.38 0.82,3.06C1,2.76 1.2,2.46 1.44,2.2C1.66,1.92 1.92,1.66 2.2,1.44C2.46,1.2 2.76,1 3.06,0.82C3.38,0.64 3.7,0.5 4.04,0.36C4.38,0.24 4.72,0.16 5.06,0.1C5.42,0.04 5.78,0 6.14,0C6.48,0 6.86,0.04 7.2,0.1C7.54,0.16 7.9,0.24 8.24,0.36C8.56,0.5 8.9,0.64 9.2,0.82C9.5,1 9.8,1.2 10.08,1.44C10.36,1.66 10.6,1.92 10.84,2.2C11.06,2.46 11.28,2.76 11.44,3.06C11.62,3.38 11.78,3.7 11.9,4.04C12.02,4.38 12.12,4.72 12.18,5.06C12.24,5.42 12.26,5.96 12.26,6.14C12.28,6.32 12.28,5.96 12.26,6.14" style="fill:none;fill-rule:nonzero;stroke:black;stroke-width:2px;"/>
    </g>
    <g transform="matrix(1,0,0,1,1801.25,230.292)">
        <g>
            <path d="M0,0C3.06,3.24 10.94,14.4 18.34,19.42C25.74,24.44 37.48,28.94 44.4,30.12C51.34,31.3 57.14,28.94 59.86,26.5C62.58,24.04 62.88,19.04 60.72,15.38C58.56,11.74 49.22,6.38 46.92,4.58M0,0C3.06,3.24 10.94,14.4 18.34,19.42C25.74,24.44 37.48,28.94 44.4,30.12C51.34,31.3 57.14,28.94 59.86,26.5C62.58,24.04 62.88,19.04 60.72,15.38C58.56,11.74 49.22,6.38 46.92,4.58" style="fill:none;fill-rule:nonzero;stroke:black;stroke-width:4px;"/>
        </g>
    </g>
    <g transform="matrix(1,0,0,1,1789.45,376.16)">
        <text x="-123.029px" y="0px" style="font-family:'LucidaGrande', 'Lucida Grande', sans-serif;font-weight:500;font-size:52.231px;">S3 Bucket</text>
    </g>
    <g transform="matrix(1,0,0,1,1676.05,55.9609)">
        <text x="0px" y="0px" style="font-family:'LucidaGrande', 'Lucida Grande', sans-serif;font-weight:500;font-size:40px;">Blob Storage</text>
    </g>
</svg>
