<svg version="1.1" xmlns="http://www.w3.org/2000/svg" viewBox="0 0 975.6796875 839.0849609375" width="1951.359375" height="1678.169921875">
  <!-- svg-source:excalidraw -->
  
  <defs>
    <style class="style-fonts">
      @font-face {
        font-family: "Virgil";
        src: url("https://excalidraw.com/Virgil.woff2");
      }
      @font-face {
        font-family: "Cascadia";
        src: url("https://excalidraw.com/Cascadia.woff2");
      }
    </style>
  </defs>
  <rect x="0" y="0" width="975.6796875" height="839.0849609375" fill="#ffffff"></rect><g stroke-linecap="round" transform="translate(389.5546875 255.3935546875) rotate(0 78.87109375 43.73828125)"><path d="M21.87 0 M21.87 0 C46.24 2.45, 72.25 1.83, 135.87 0 M21.87 0 C64.41 -0.3, 107.09 -0.47, 135.87 0 M135.87 0 C152.11 1.9, 159.37 8.25, 157.74 21.87 M135.87 0 C152.19 -0.97, 156.02 7.01, 157.74 21.87 M157.74 21.87 C159.58 38.02, 156.5 55.74, 157.74 65.61 M157.74 21.87 C157.63 33.24, 158.69 45.92, 157.74 65.61 M157.74 65.61 C158.38 80.51, 149.29 87.61, 135.87 87.48 M157.74 65.61 C155.8 78.01, 150.08 88.82, 135.87 87.48 M135.87 87.48 C110.9 87.45, 87.95 87.83, 21.87 87.48 M135.87 87.48 C100.65 88.66, 65.87 88.08, 21.87 87.48 M21.87 87.48 C6.15 87.19, 0.28 78.33, 0 65.61 M21.87 87.48 C7.28 89.58, 1.88 79.86, 0 65.61 M0 65.61 C1.75 56.59, -0.07 47.82, 0 21.87 M0 65.61 C0.24 54.13, 0.24 43.4, 0 21.87 M0 21.87 C1.5 6.71, 5.81 1.54, 21.87 0 M0 21.87 C-1.88 5.2, 6.5 -1.51, 21.87 0" stroke="#000000" stroke-width="1" fill="none"></path></g><g transform="translate(428.1258239746094 286.6318359375) rotate(0 40.299957275390625 12.5)"><text x="40.299957275390625" y="0" font-family="Virgil, Segoe UI Emoji" font-size="20px" fill="#000000" text-anchor="middle" style="white-space: pre;" direction="ltr" dominant-baseline="text-before-edge">Register</text></g><g stroke-linecap="round" transform="translate(369.52734375 467.8896484375) rotate(0 78.87109375 43.73828125)"><path d="M21.87 0 M21.87 0 C60.78 0, 100.17 0.99, 135.87 0 M21.87 0 C63.02 0.46, 103.05 -0.59, 135.87 0 M135.87 0 C150.17 0.28, 155.89 7.28, 157.74 21.87 M135.87 0 C152.55 1.88, 157.42 5.35, 157.74 21.87 M157.74 21.87 C158.44 36.07, 159.11 49.27, 157.74 65.61 M157.74 21.87 C157.39 36.59, 157.74 51.34, 157.74 65.61 M157.74 65.61 C157.17 78.71, 152 85.84, 135.87 87.48 M157.74 65.61 C155.65 79.4, 148.94 87.5, 135.87 87.48 M135.87 87.48 C106.77 87.35, 77.64 86.18, 21.87 87.48 M135.87 87.48 C97.57 88.48, 59.09 87.62, 21.87 87.48 M21.87 87.48 C6 86.53, 0.15 80.98, 0 65.61 M21.87 87.48 C9.19 89.58, -0.72 82.46, 0 65.61 M0 65.61 C-1.47 54.55, 0.53 42.41, 0 21.87 M0 65.61 C0.33 49.36, -1.38 31.71, 0 21.87 M0 21.87 C1.85 8.42, 7.45 -0.95, 21.87 0 M0 21.87 C-1.69 8.84, 5.27 0.7, 21.87 0" stroke="#000000" stroke-width="1" fill="none"></path></g><g transform="translate(424.9984588623047 499.1279296875) rotate(0 23.399978637695312 12.5)"><text x="23.399978637695312" y="0" font-family="Virgil, Segoe UI Emoji" font-size="20px" fill="#000000" text-anchor="middle" style="white-space: pre;" direction="ltr" dominant-baseline="text-before-edge">Login</text></g><g stroke-linecap="round"><g transform="translate(477.9605591306673 345.5185546875) rotate(0 -10.635557860754318 59.54287717682311)"><path d="M-0.51 -0.47 C-4.23 19.58, -18.42 99.75, -22.3 119.79 M1.43 -1.76 C-2.37 18.46, -18.33 100.45, -22.7 120.85" stroke="#000000" stroke-width="1" fill="none"></path></g><g transform="translate(477.9605591306673 345.5185546875) rotate(0 -10.635557860754318 59.54287717682311)"><path d="M-27.93 92.92 C-27.46 99.49, -26.13 108.05, -22.38 120.5 M-27.58 90.97 C-26.36 97.65, -24.82 103.13, -22.42 120.09" stroke="#000000" stroke-width="1" fill="none"></path></g><g transform="translate(477.9605591306673 345.5185546875) rotate(0 -10.635557860754318 59.54287717682311)"><path d="M-7.82 97 C-13.44 102.25, -18.22 109.57, -22.38 120.5 M-7.47 95.05 C-10.52 100.92, -13.22 105.55, -22.42 120.09" stroke="#000000" stroke-width="1" fill="none"></path></g></g><mask></mask><g stroke-linecap="round" transform="translate(258.83984375 741.6083984375) rotate(0 78.87109375 43.73828125)"><path d="M21.87 0 M21.87 0 C54.26 -1.65, 89.72 -1.46, 135.87 0 M21.87 0 C63.92 -0.64, 107.09 -0.49, 135.87 0 M135.87 0 C151.42 1.52, 158.86 5.66, 157.74 21.87 M135.87 0 C151.39 -1.98, 155.75 6.01, 157.74 21.87 M157.74 21.87 C158.99 33.02, 158.65 48.93, 157.74 65.61 M157.74 21.87 C158.49 31.85, 157.29 39.44, 157.74 65.61 M157.74 65.61 C156.73 79.19, 149.03 85.85, 135.87 87.48 M157.74 65.61 C157.8 78.07, 149.9 87.52, 135.87 87.48 M135.87 87.48 C99.12 87.8, 64.68 87.4, 21.87 87.48 M135.87 87.48 C104.02 87.01, 72.57 88.1, 21.87 87.48 M21.87 87.48 C7.9 88.6, 1.61 78.37, 0 65.61 M21.87 87.48 C6.89 86.94, -1.04 78.44, 0 65.61 M0 65.61 C-0.03 53.82, 0.37 45.9, 0 21.87 M0 65.61 C0.53 54.59, 0.16 42.69, 0 21.87 M0 21.87 C-0.44 6.24, 6.69 -0.12, 21.87 0 M0 21.87 C-1.91 6.52, 6.61 2.22, 21.87 0" stroke="#000000" stroke-width="1" fill="none"></path></g><g transform="translate(296.26097869873047 772.8466796875) rotate(0 41.44995880126953 12.5)"><text x="41.44995880126953" y="0" font-family="Virgil, Segoe UI Emoji" font-size="20px" fill="#000000" text-anchor="middle" style="white-space: pre;" direction="ltr" dominant-baseline="text-before-edge">Sell item</text></g><g stroke-linecap="round" transform="translate(512.71875 721.2099609375) rotate(0 78.87109375 43.73828125)"><path d="M21.87 0 M21.87 0 C61.83 0.2, 100.47 -1.17, 135.87 0 M21.87 0 C63.15 0.26, 105.16 -0.74, 135.87 0 M135.87 0 C149.16 0.65, 157.8 6.5, 157.74 21.87 M135.87 0 C152.6 -2.14, 157.49 6.61, 157.74 21.87 M157.74 21.87 C158.29 31.46, 155.94 45.51, 157.74 65.61 M157.74 21.87 C156.47 32.14, 157.9 42.47, 157.74 65.61 M157.74 65.61 C159.41 81.27, 149.82 86.56, 135.87 87.48 M157.74 65.61 C157.18 81.43, 149.05 87.44, 135.87 87.48 M135.87 87.48 C108.04 87.43, 83.18 84.69, 21.87 87.48 M135.87 87.48 C112.12 87.31, 88.67 86.21, 21.87 87.48 M21.87 87.48 C6.02 87.66, -1.19 80.23, 0 65.61 M21.87 87.48 C5.57 89.4, 2.18 80.76, 0 65.61 M0 65.61 C0.02 51.26, 1.96 36.39, 0 21.87 M0 65.61 C0.45 50.13, -0.3 35.33, 0 21.87 M0 21.87 C-1.2 7.56, 8.15 -0.71, 21.87 0 M0 21.87 C1.14 7.14, 8.52 -0.48, 21.87 0" stroke="#000000" stroke-width="1" fill="none"></path></g><g transform="translate(531.0998992919922 752.4482421875) rotate(0 60.48994445800781 12.5)"><text x="60.48994445800781" y="0" font-family="Virgil, Segoe UI Emoji" font-size="20px" fill="#000000" text-anchor="middle" style="white-space: pre;" direction="ltr" dominant-baseline="text-before-edge">Create Shop</text></g><g stroke-linecap="round"><g transform="translate(429.0237442042477 553.5849609375) rotate(0 -52.628215200414786 93.45032887638553)"><path d="M-0.2 0.97 C-17.41 31.88, -86.75 154.39, -103.88 185.41 M-1.76 0.43 C-19.12 31.48, -88.09 155.68, -105.06 186.47" stroke="#000000" stroke-width="1" fill="none"></path></g><g transform="translate(429.0237442042477 553.5849609375) rotate(0 -52.628215200414786 93.45032887638553)"><path d="M-98.77 156.13 C-103.09 164.98, -101.46 173, -104.86 184.72 M-99.86 156.28 C-101.45 168.3, -103.93 177.94, -104.32 185.71" stroke="#000000" stroke-width="1" fill="none"></path></g><g transform="translate(429.0237442042477 553.5849609375) rotate(0 -52.628215200414786 93.45032887638553)"><path d="M-80.81 166.06 C-89.63 172.4, -92.49 177.93, -104.86 184.72 M-81.91 166.22 C-90.22 174.54, -99.33 180.51, -104.32 185.71" stroke="#000000" stroke-width="1" fill="none"></path></g></g><mask></mask><g stroke-linecap="round"><g transform="translate(473.10522877073026 559.3154296875) rotate(0 63.36228714975363 78.86784058109396)"><path d="M-1.08 0.44 C20.22 26.92, 106.46 131.91, 127.8 158.11 M0.55 -0.37 C21.74 25.81, 106.22 129.69, 127.14 156.24" stroke="#000000" stroke-width="1" fill="none"></path></g><g transform="translate(473.10522877073026 559.3154296875) rotate(0 63.36228714975363 78.86784058109396)"><path d="M102.24 141.58 C109.93 145.16, 116.82 148.84, 127.26 156.81 M101.7 140.29 C109.81 146.52, 118.26 151.17, 126.75 156.44" stroke="#000000" stroke-width="1" fill="none"></path></g><g transform="translate(473.10522877073026 559.3154296875) rotate(0 63.36228714975363 78.86784058109396)"><path d="M118.24 128.74 C121.03 136.05, 123.1 143.59, 127.26 156.81 M117.71 127.45 C120.53 137.84, 123.69 146.73, 126.75 156.44" stroke="#000000" stroke-width="1" fill="none"></path></g></g><mask></mask><g stroke-linecap="round" transform="translate(10 698.694580078125) rotate(0 78.87109375 43.73828125)"><path d="M21.87 0 M21.87 0 C46.46 1.59, 71.55 1.36, 135.87 0 M21.87 0 C55.94 -1.36, 91.01 0.2, 135.87 0 M135.87 0 C148.74 0.47, 157.94 5.77, 157.74 21.87 M135.87 0 C152.67 -1.11, 159.91 5.01, 157.74 21.87 M157.74 21.87 C156.6 33.4, 157.83 45.84, 157.74 65.61 M157.74 21.87 C157.78 38.19, 156.87 55.04, 157.74 65.61 M157.74 65.61 C156.2 81.28, 149.29 89.27, 135.87 87.48 M157.74 65.61 C159.25 81.46, 149.09 89.14, 135.87 87.48 M135.87 87.48 C98.39 85.26, 63.49 85.17, 21.87 87.48 M135.87 87.48 C100.05 88.12, 65.24 86.89, 21.87 87.48 M21.87 87.48 C9.11 86.85, -0.53 78.34, 0 65.61 M21.87 87.48 C6.72 86.67, 1.16 78.01, 0 65.61 M0 65.61 C1.39 48.1, -0.73 31.53, 0 21.87 M0 65.61 C-0.08 50.12, 0.4 35.56, 0 21.87 M0 21.87 C-0.02 5.97, 6.51 1.99, 21.87 0 M0 21.87 C-1.15 8.68, 7.54 -1.24, 21.87 0" stroke="#000000" stroke-width="1" fill="none"></path></g><g transform="translate(20.191146850585938 729.932861328125) rotate(0 68.67994689941406 12.5)"><text x="68.67994689941406" y="0" font-family="Virgil, Segoe UI Emoji" font-size="20px" fill="#000000" text-anchor="middle" style="white-space: pre;" direction="ltr" dominant-baseline="text-before-edge">Make comment</text></g><g stroke-linecap="round" transform="translate(174.61328125 243.858642578125) rotate(0 84.486328125 46.107421875)"><path d="M23.05 0 M23.05 0 C67.94 -0.81, 110.53 -1.15, 145.92 0 M23.05 0 C61.2 0.67, 100.46 1.37, 145.92 0 M145.92 0 C159.71 0.7, 170.29 8.09, 168.97 23.05 M145.92 0 C159.73 1.88, 169.92 9.2, 168.97 23.05 M168.97 23.05 C168.38 33.18, 167.78 41.93, 168.97 69.16 M168.97 23.05 C168.95 40.36, 169.62 58.64, 168.97 69.16 M168.97 69.16 C168.03 85.74, 162.63 92.85, 145.92 92.21 M168.97 69.16 C167.63 85.49, 161.43 91.79, 145.92 92.21 M145.92 92.21 C104.26 91.12, 62.95 92.01, 23.05 92.21 M145.92 92.21 C99.98 91.89, 53.91 92.26, 23.05 92.21 M23.05 92.21 C8.89 93.5, 0.67 85.92, 0 69.16 M23.05 92.21 C5.42 91.42, -0.42 84.7, 0 69.16 M0 69.16 C1.48 51.09, -0.97 35.92, 0 23.05 M0 69.16 C0.53 54.77, -0.45 40, 0 23.05 M0 23.05 C-1.36 6, 8.92 -1.52, 23.05 0 M0 23.05 C-2.12 9.33, 9.03 2.21, 23.05 0" stroke="#000000" stroke-width="1" fill="none"></path></g><g transform="translate(197.1196746826172 277.466064453125) rotate(0 61.97993469238281 12.5)"><text x="61.97993469238281" y="0" font-family="Virgil, Segoe UI Emoji" font-size="20px" fill="#000000" text-anchor="middle" style="white-space: pre;" direction="ltr" dominant-baseline="text-before-edge">browse items</text></g><g stroke-linecap="round"><g transform="translate(259.38550394323306 339.596923828125) rotate(0 78.56950545505288 62.272503847242376)"><path d="M0.25 -0.66 C26.66 20.16, 131.99 102.95, 158.22 123.97 M-1.08 1.6 C25.3 22.66, 131.51 104.87, 157.89 125.21" stroke="#000000" stroke-width="1" fill="none"></path></g><g transform="translate(259.38550394323306 339.596923828125) rotate(0 78.56950545505288 62.272503847242376)"><path d="M128.21 118.03 C136.17 119.54, 146.56 122.06, 159.51 125.84 M130.05 116.98 C139.52 119.59, 148.65 121.41, 158.03 124.43" stroke="#000000" stroke-width="1" fill="none"></path></g><g transform="translate(259.38550394323306 339.596923828125) rotate(0 78.56950545505288 62.272503847242376)"><path d="M140.76 101.8 C145.13 107.82, 152.05 114.83, 159.51 125.84 M142.6 100.75 C147.83 108.6, 152.85 115.75, 158.03 124.43" stroke="#000000" stroke-width="1" fill="none"></path></g></g><mask></mask><g stroke-linecap="round"><g transform="translate(366.25 555.35328714365) rotate(0 -97.24888448640701 73.06702631604514)"><path d="M0.36 -0.4 C-32.24 24.41, -162.36 123.13, -194.85 147.79 M-0.92 -1.65 C-33.21 22.88, -160.78 120.78, -192.65 145.87" stroke="#000000" stroke-width="1" fill="none"></path></g><g transform="translate(366.25 555.35328714365) rotate(0 -97.24888448640701 73.06702631604514)"><path d="M-177.33 118.87 C-182 128.47, -188.2 137.01, -191.63 147.67 M-177.22 120.53 C-181.35 128.11, -186.35 137.09, -193.43 145.3" stroke="#000000" stroke-width="1" fill="none"></path></g><g transform="translate(366.25 555.35328714365) rotate(0 -97.24888448640701 73.06702631604514)"><path d="M-164.75 135.09 C-173.81 138.87, -184.55 141.56, -191.63 147.67 M-164.64 136.74 C-172.83 139.09, -181.86 142.89, -193.43 145.3" stroke="#000000" stroke-width="1" fill="none"></path></g></g><mask></mask><g stroke-linecap="round" transform="translate(640.779296875 262.669677734375) rotate(0 84.486328125 46.107421875)"><path d="M23.05 0 M23.05 0 C53.61 1.54, 80.63 0.68, 145.92 0 M23.05 0 C60.45 -1.34, 96.13 -0.26, 145.92 0 M145.92 0 C160.34 -0.96, 168.06 8.85, 168.97 23.05 M145.92 0 C160.39 -0.59, 169.21 7.39, 168.97 23.05 M168.97 23.05 C168.94 38.09, 168.41 54.75, 168.97 69.16 M168.97 23.05 C168.93 40.27, 168.68 57.4, 168.97 69.16 M168.97 69.16 C167.39 83.65, 162.79 92.51, 145.92 92.21 M168.97 69.16 C169.8 85.56, 161.97 90.85, 145.92 92.21 M145.92 92.21 C116.57 91.63, 89.07 91.34, 23.05 92.21 M145.92 92.21 C104.9 92.87, 61.56 92.41, 23.05 92.21 M23.05 92.21 C7.19 93.39, 1.36 84.56, 0 69.16 M23.05 92.21 C8.59 93.84, 0.57 83.39, 0 69.16 M0 69.16 C1.29 58.72, 2.09 44.62, 0 23.05 M0 69.16 C-0.59 53.22, -0.01 36.31, 0 23.05 M0 23.05 C1.46 9.62, 7.78 -0.79, 23.05 0 M0 23.05 C1.52 9.86, 8.09 -1.07, 23.05 0" stroke="#000000" stroke-width="1" fill="none"></path></g><g transform="translate(665.32568359375 296.277099609375) rotate(0 59.93994140625 12.5)"><text x="59.93994140625" y="0" font-family="Virgil, Segoe UI Emoji" font-size="20px" fill="#000000" text-anchor="middle" style="white-space: pre;" direction="ltr" dominant-baseline="text-before-edge">Browse shop</text></g><g stroke-linecap="round"><g transform="translate(696.805325668143 357.718505859375) rotate(0 -82.42102820323373 54.61381951979999)"><path d="M1.18 -0.19 C-26.34 17.93, -138.41 90.69, -166.02 108.98 M0.34 -1.34 C-26.74 16.97, -136.32 92.43, -163.89 110.57" stroke="#000000" stroke-width="1" fill="none"></path></g><g transform="translate(696.805325668143 357.718505859375) rotate(0 -82.42102820323373 54.61381951979999)"><path d="M-146.59 84.46 C-150.02 92.63, -153.13 96.94, -165.11 109.07 M-145.38 86.02 C-151.68 92.73, -157.38 100.09, -163.89 110.04" stroke="#000000" stroke-width="1" fill="none"></path></g><g transform="translate(696.805325668143 357.718505859375) rotate(0 -82.42102820323373 54.61381951979999)"><path d="M-135.11 101.47 C-141.16 105.91, -146.86 106.38, -165.11 109.07 M-133.9 103.02 C-143.6 104.86, -152.64 107.26, -163.89 110.04" stroke="#000000" stroke-width="1" fill="none"></path></g></g><mask></mask><g stroke-linecap="round"><g transform="translate(529.0350597431825 529.2239062712649) rotate(0 128.06020543325712 65.29619622185919)"><path d="M-0.1 -1.18 C42.72 20.8, 214.67 109.56, 257.73 131.78 M-1.61 0.81 C41.02 22.45, 213.75 108.37, 257.03 129.95" stroke="#000000" stroke-width="1" fill="none"></path></g><g transform="translate(529.0350597431825 529.2239062712649) rotate(0 128.06020543325712 65.29619622185919)"><path d="M225.24 127.34 C239.15 129.54, 250.77 130.71, 257.68 131.56 M227.46 127.19 C237.21 127.78, 245.94 129.49, 256.62 130.55" stroke="#000000" stroke-width="1" fill="none"></path></g><g transform="translate(529.0350597431825 529.2239062712649) rotate(0 128.06020543325712 65.29619622185919)"><path d="M234.39 108.97 C244.9 117.94, 253.14 125.89, 257.68 131.56 M236.61 108.82 C243.7 115.04, 249.64 122.37, 256.62 130.55" stroke="#000000" stroke-width="1" fill="none"></path></g></g><mask></mask><g stroke-linecap="round" transform="translate(790.6796875 651.784912109375) rotate(0 87.5 50.5)"><path d="M25.25 0 M25.25 0 C68.24 1.48, 110.87 -0.54, 149.75 0 M25.25 0 C53.07 0.01, 79.79 -1.06, 149.75 0 M149.75 0 C167.7 0.97, 174.04 7.55, 175 25.25 M149.75 0 C167.42 -2.09, 174.32 6.57, 175 25.25 M175 25.25 C175.03 38.09, 173.28 50.84, 175 75.75 M175 25.25 C174.89 36.14, 175.63 46.59, 175 75.75 M175 75.75 C174.89 90.67, 165.28 101.28, 149.75 101 M175 75.75 C176.32 94.38, 166.03 101.29, 149.75 101 M149.75 101 C114.45 100.25, 80.9 99.81, 25.25 101 M149.75 101 C122.24 102.05, 94.99 101.28, 25.25 101 M25.25 101 C7.88 99.83, -0.84 93.08, 0 75.75 M25.25 101 C10.61 102.87, -1.6 93.69, 0 75.75 M0 75.75 C0.68 57.97, -1.79 43.64, 0 25.25 M0 75.75 C-0.89 62.38, -0.5 51.05, 0 25.25 M0 25.25 C-0.81 8.99, 10.22 -0.3, 25.25 0 M0 25.25 C-2.04 7.25, 10.36 -0.07, 25.25 0" stroke="#000000" stroke-width="1" fill="none"></path></g><g transform="translate(815.599739074707 689.784912109375) rotate(0 62.57994842529297 12.5)"><text x="62.57994842529297" y="0" font-family="Virgil, Segoe UI Emoji" font-size="20px" fill="#000000" text-anchor="middle" style="white-space: pre;" direction="ltr" dominant-baseline="text-before-edge">Leave review</text></g><g stroke-linecap="round"><g transform="translate(535.36328125 508.153564453125) rotate(0 97.9622890718282 19.999695569099856)"><path d="M-0.81 0.63 C32.04 7.28, 163.91 32.45, 196.73 38.93 M0.97 -0.08 C33.78 6.79, 163.84 33.27, 196.26 40.08" stroke="#000000" stroke-width="1" fill="none"></path></g><g transform="translate(535.36328125 508.153564453125) rotate(0 97.9622890718282 19.999695569099856)"><path d="M167.63 45.93 C173.35 43.93, 182.36 42.5, 195.68 38.21 M167.28 43.57 C177.04 42.52, 188.59 42.14, 195.57 40.3" stroke="#000000" stroke-width="1" fill="none"></path></g><g transform="translate(535.36328125 508.153564453125) rotate(0 97.9622890718282 19.999695569099856)"><path d="M171.78 25.83 C176.23 29.21, 184.12 33.2, 195.68 38.21 M171.43 23.48 C179.74 29.91, 189.74 37.03, 195.57 40.3" stroke="#000000" stroke-width="1" fill="none"></path></g></g><mask></mask><g stroke-linecap="round" transform="translate(730.609375 516.169189453125) rotate(0 86.17578125 44.962890625)"><path d="M22.48 0 M22.48 0 C54.61 -1.36, 83.46 -1.78, 149.87 0 M22.48 0 C64.24 -0.78, 104.19 -0.11, 149.87 0 M149.87 0 C162.96 1.4, 171.91 8.9, 172.35 22.48 M149.87 0 C165.56 1.23, 173.17 7.75, 172.35 22.48 M172.35 22.48 C170.24 33.94, 172.7 48.44, 172.35 67.44 M172.35 22.48 C172.48 33.63, 171.83 45.8, 172.35 67.44 M172.35 67.44 C172.31 81.16, 163.38 91.64, 149.87 89.93 M172.35 67.44 C171.91 83.52, 167.1 90.96, 149.87 89.93 M149.87 89.93 C114.94 89.43, 78.39 89.61, 22.48 89.93 M149.87 89.93 C103.47 89.3, 59.03 90.86, 22.48 89.93 M22.48 89.93 C6.24 88.41, -1.56 83.96, 0 67.44 M22.48 89.93 C6.92 88.53, -1.95 81.3, 0 67.44 M0 67.44 C-1.78 49.69, -0.59 33.84, 0 22.48 M0 67.44 C-0.89 50.96, 0.77 34.96, 0 22.48 M0 22.48 C-1.63 6.38, 8.5 1.69, 22.48 0 M0 22.48 C2.2 9.72, 9.2 0.34, 22.48 0" stroke="#000000" stroke-width="1" fill="none"></path></g><g transform="translate(768.1952056884766 548.632080078125) rotate(0 48.58995056152344 12.5)"><text x="48.58995056152344" y="0" font-family="Virgil, Segoe UI Emoji" font-size="20px" fill="#000000" text-anchor="middle" style="white-space: pre;" direction="ltr" dominant-baseline="text-before-edge">Like items</text></g><g stroke-linecap="round" transform="translate(369.69921875 10) rotate(0 99.341796875 47.99609375)"><path d="M24 0 M24 0 C71.34 -2.24, 116.31 0.75, 174.69 0 M24 0 C80.99 2.31, 137.01 0.5, 174.69 0 M174.69 0 C191.33 1.61, 197.24 8.65, 198.68 24 M174.69 0 C191.83 -0.97, 199.9 10.18, 198.68 24 M198.68 24 C198.13 33.77, 199.01 47.67, 198.68 71.99 M198.68 24 C197.76 39.43, 199.21 54.58, 198.68 71.99 M198.68 71.99 C197.12 89.82, 190.65 94.35, 174.69 95.99 M198.68 71.99 C199.87 86.71, 192.85 96.08, 174.69 95.99 M174.69 95.99 C123.92 98.52, 73.35 95.44, 24 95.99 M174.69 95.99 C129.88 96.14, 85.13 96.76, 24 95.99 M24 95.99 C7.43 94.56, 1.8 88.63, 0 71.99 M24 95.99 C7.54 93.74, -0.17 89.95, 0 71.99 M0 71.99 C-0.56 61.99, -1.08 51.99, 0 24 M0 71.99 C1.18 60.35, 0.4 50.22, 0 24 M0 24 C-0.11 6.26, 9.44 -0.65, 24 0 M0 24 C-1.06 8.02, 5.96 -0.16, 24 0" stroke="#000000" stroke-width="1" fill="none"></path></g><g transform="translate(446.70103454589844 45.49609375) rotate(0 22.339981079101562 12.5)"><text x="22.339981079101562" y="0" font-family="Virgil, Segoe UI Emoji" font-size="20px" fill="#000000" text-anchor="middle" style="white-space: pre;" direction="ltr" dominant-baseline="text-before-edge">User</text></g><g stroke-linecap="round"><g transform="translate(429.2573175368126 110.12500000000006) rotate(0 -82.21700525265709 65.65488428697454)"><path d="M-0.02 0.27 C-27.34 22.1, -137.14 109.89, -164.42 131.94 M-1.49 -0.64 C-28.4 20.74, -135.05 108.13, -162.22 130.03" stroke="#000000" stroke-width="1" fill="none"></path></g><g transform="translate(429.2573175368126 110.12500000000006) rotate(0 -82.21700525265709 65.65488428697454)"><path d="M-146.37 102.64 C-149.96 110.6, -152.91 116.06, -160.69 130.05 M-147.46 104.15 C-151.96 114.62, -157.37 122.81, -162.65 129.51" stroke="#000000" stroke-width="1" fill="none"></path></g><g transform="translate(429.2573175368126 110.12500000000006) rotate(0 -82.21700525265709 65.65488428697454)"><path d="M-133.43 118.56 C-140.5 122.39, -146.8 123.72, -160.69 130.05 M-134.51 120.07 C-143.84 124.89, -153.93 127.32, -162.65 129.51" stroke="#000000" stroke-width="1" fill="none"></path></g></g><mask></mask><g stroke-linecap="round"><g transform="translate(475.9411188233295 112.13281250000006) rotate(0 -4.151704982077717 71.56930964631027)"><path d="M-0.41 0.6 C-1.95 24.27, -7.79 118.2, -9.12 141.91 M1.58 -0.13 C-0.1 23.72, -8.19 119.76, -9.88 143.26" stroke="#000000" stroke-width="1" fill="none"></path></g><g transform="translate(475.9411188233295 112.13281250000006) rotate(0 -4.151704982077717 71.56930964631027)"><path d="M-16.89 114.96 C-16.01 125.2, -11.89 130.36, -10.09 145.26 M-17.01 113.36 C-16.68 121.19, -13.39 128.08, -9.24 143" stroke="#000000" stroke-width="1" fill="none"></path></g><g transform="translate(475.9411188233295 112.13281250000006) rotate(0 -4.151704982077717 71.56930964631027)"><path d="M3.57 116.57 C-1.9 126.24, -4.14 130.9, -10.09 145.26 M3.45 114.98 C-1.24 122.44, -2.95 128.94, -9.24 143" stroke="#000000" stroke-width="1" fill="none"></path></g></g><mask></mask><g stroke-linecap="round"><g transform="translate(541.1727545701074 113.5546875) rotate(0 87.64482344376779 73.01595070582815)"><path d="M0.28 1.07 C29.62 25.01, 146.92 120.22, 176.32 144.16 M-1.03 0.58 C28.18 24.64, 146.15 121.2, 175.74 145.45" stroke="#000000" stroke-width="1" fill="none"></path></g><g transform="translate(541.1727545701074 113.5546875) rotate(0 87.64482344376779 73.01595070582815)"><path d="M149.2 136.68 C155.88 140.46, 165.99 142.77, 175.02 146.41 M148.42 135.79 C157.73 139.66, 166.71 142.27, 175.14 144.9" stroke="#000000" stroke-width="1" fill="none"></path></g><g transform="translate(541.1727545701074 113.5546875) rotate(0 87.64482344376779 73.01595070582815)"><path d="M162.21 120.81 C164.73 129.77, 170.61 137.25, 175.02 146.41 M161.43 119.91 C166.48 129.03, 171.1 136.96, 175.14 144.9" stroke="#000000" stroke-width="1" fill="none"></path></g></g><mask></mask></svg>